<svg width="300" height="242" viewBox="0 0 300 242" fill="none" xmlns="http://www.w3.org/2000/svg">
<path d="M297.778 139.867H68.7156C68.1264 139.867 67.5615 139.632 67.1448 139.215C66.7282 138.799 66.4938 138.234 66.4932 137.645V2.22246C66.4938 1.63323 66.7282 1.06831 67.1448 0.651655C67.5615 0.235001 68.1264 0.000643238 68.7156 0H297.778C298.367 0.00064324 298.932 0.235002 299.348 0.651656C299.765 1.06831 299.999 1.63323 300 2.22246V137.645C299.999 138.234 299.765 138.799 299.348 139.215C298.932 139.632 298.367 139.867 297.778 139.867ZM68.7156 0.888985C68.3621 0.889371 68.0231 1.02999 67.7731 1.27998C67.5231 1.52997 67.3825 1.86892 67.3821 2.22246V137.645C67.3825 137.998 67.5231 138.337 67.7731 138.587C68.0231 138.837 68.3621 138.978 68.7156 138.978H297.778C298.131 138.978 298.47 138.837 298.72 138.587C298.97 138.337 299.111 137.998 299.111 137.645V2.22246C299.111 1.86892 298.97 1.52997 298.72 1.27998C298.47 1.02999 298.131 0.889371 297.778 0.888985H68.7156Z" fill="#E6E6E6"/>
<path d="M161.167 10.8155C160.705 10.8232 160.264 11.0123 159.94 11.3419C159.616 11.6715 159.434 12.1152 159.434 12.5775C159.434 13.0397 159.616 13.4835 159.94 13.8131C160.264 14.1427 160.705 14.3317 161.167 14.3395H205.345C205.812 14.3463 206.262 14.1681 206.597 13.8437C206.932 13.5193 207.125 13.0753 207.133 12.6089C207.141 12.1426 206.965 11.692 206.641 11.3558C206.318 11.0197 205.875 10.8254 205.408 10.8156L205.403 10.8155C205.384 10.8152 205.364 10.8152 205.345 10.8155H161.167Z" fill="#3F3D56"/>
<path d="M215.364 10.3249C215.298 10.3899 215.262 10.4781 215.262 10.57C215.262 10.662 215.298 10.7502 215.363 10.8152L215.364 10.8152L216.852 12.3037H213.182C213.09 12.3039 213.002 12.3406 212.937 12.4056C212.872 12.4706 212.836 12.5586 212.836 12.6504C212.836 12.7422 212.872 12.8302 212.937 12.8952C213.002 12.9602 213.09 12.9968 213.182 12.9971H216.852L215.364 14.4855C215.331 14.5177 215.306 14.5559 215.288 14.598C215.271 14.6401 215.262 14.6852 215.262 14.7307C215.262 14.7762 215.271 14.8213 215.288 14.8634C215.306 14.9054 215.331 14.9437 215.363 14.9759C215.396 15.0081 215.434 15.0336 215.476 15.051C215.518 15.0684 215.563 15.0774 215.609 15.0774C215.654 15.0774 215.699 15.0684 215.741 15.051C215.783 15.0336 215.822 15.0081 215.854 14.9759L217.934 12.8956C217.999 12.8305 218.036 12.7423 218.036 12.6504C218.036 12.5584 217.999 12.4702 217.934 12.4052L215.854 10.3249C215.822 10.2927 215.783 10.2672 215.741 10.2497C215.699 10.2323 215.654 10.2233 215.609 10.2233C215.563 10.2233 215.518 10.2323 215.476 10.2497C215.434 10.2672 215.396 10.2927 215.364 10.3249L215.364 10.3249Z" fill="#E6E6E6"/>
<path d="M151.129 10.3249C151.194 10.3899 151.231 10.4781 151.231 10.57C151.231 10.662 151.194 10.7502 151.129 10.8152L151.129 10.8152L149.641 12.3037H153.311C153.357 12.3035 153.402 12.3123 153.444 12.3296C153.486 12.3469 153.525 12.3724 153.557 12.4046C153.589 12.4368 153.615 12.475 153.633 12.5171C153.65 12.5592 153.659 12.6044 153.659 12.65C153.659 12.6956 153.65 12.7408 153.633 12.7829C153.615 12.8251 153.59 12.8633 153.558 12.8956C153.525 12.9278 153.487 12.9534 153.445 12.9708C153.403 12.9882 153.358 12.9972 153.312 12.9971H149.641L151.129 14.4855C151.161 14.5177 151.187 14.5559 151.204 14.598C151.222 14.6401 151.231 14.6852 151.231 14.7307C151.231 14.7762 151.222 14.8213 151.204 14.8634C151.187 14.9054 151.161 14.9437 151.129 14.9759C151.097 15.0081 151.059 15.0336 151.017 15.051C150.975 15.0685 150.93 15.0774 150.884 15.0774C150.839 15.0774 150.793 15.0685 150.751 15.051C150.709 15.0336 150.671 15.0081 150.639 14.9759L148.559 12.8956C148.494 12.8305 148.457 12.7423 148.457 12.6504C148.457 12.5584 148.494 12.4702 148.559 12.4052L150.639 10.3249C150.704 10.2599 150.792 10.2233 150.884 10.2233C150.976 10.2233 151.064 10.2599 151.129 10.3249L151.129 10.3249Z" fill="#E6E6E6"/>
<path d="M66.3605 147.327C64.3519 147.327 62.3883 146.731 60.7182 145.615C59.0481 144.499 57.7463 142.913 56.9777 141.057C56.209 139.202 56.0079 137.159 56.3997 135.189C56.7916 133.219 57.7589 131.41 59.1792 129.989C60.5995 128.569 62.4091 127.602 64.3792 127.21C66.3493 126.818 68.3913 127.019 70.247 127.788C72.1028 128.557 73.6889 129.858 74.8049 131.528C75.9208 133.199 76.5164 135.162 76.5164 137.171C76.5164 139.864 75.4464 142.447 73.5418 144.352C71.6372 146.257 69.054 147.327 66.3605 147.327Z" fill="#D3C1FF"/>
<path d="M70.3674 136.169H67.362V133.163C67.362 132.898 67.2565 132.643 67.0686 132.455C66.8807 132.267 66.6259 132.162 66.3602 132.162C66.0945 132.162 65.8397 132.267 65.6518 132.455C65.4639 132.643 65.3584 132.898 65.3584 133.163V136.169H62.3529C62.0872 136.169 61.8324 136.274 61.6445 136.462C61.4566 136.65 61.3511 136.905 61.3511 137.171C61.3511 137.436 61.4566 137.691 61.6445 137.879C61.8324 138.067 62.0872 138.173 62.3529 138.173H65.3584V141.178C65.3584 141.444 65.4639 141.699 65.6518 141.886C65.8397 142.074 66.0945 142.18 66.3602 142.18C66.6259 142.18 66.8807 142.074 67.0686 141.886C67.2565 141.699 67.362 141.444 67.362 141.178V138.173H70.3674C70.6331 138.173 70.888 138.067 71.0758 137.879C71.2637 137.691 71.3693 137.436 71.3693 137.171C71.3693 136.905 71.2637 136.65 71.0758 136.462C70.888 136.274 70.6331 136.169 70.3674 136.169Z" fill="white"/>
<path d="M115.536 28.8558H85.0137V49.5988H115.536V28.8558Z" fill="#F1F1F1"/>
<path d="M157.021 28.8558H126.5V49.5988H157.021V28.8558Z" fill="#F1F1F1"/>
<path d="M198.507 28.8558H167.985V49.5988H198.507V28.8558Z" fill="#F1F1F1"/>
<path d="M239.994 28.8558H209.472V49.5988H239.994V28.8558Z" fill="#F1F1F1"/>
<path d="M281.479 28.8558H250.958V49.5988H281.479V28.8558Z" fill="#F1F1F1"/>
<path d="M115.647 65.3042H85.1255V86.0472H115.647V65.3042Z" fill="#F1F1F1"/>
<path d="M157.133 65.3042H126.611V86.0472H157.133V65.3042Z" fill="#F1F1F1"/>
<path d="M198.62 65.3042H168.098V86.0472H198.62V65.3042Z" fill="#F1F1F1"/>
<path d="M240.105 65.3042H209.583V86.0472H240.105V65.3042Z" fill="#F1F1F1"/>
<path d="M281.591 65.3042H251.069V86.0472H281.591V65.3042Z" fill="#F1F1F1"/>
<path d="M115.759 101.753H85.2373V122.496H115.759V101.753Z" fill="#F1F1F1"/>
<path d="M157.245 101.753H126.724V122.496H157.245V101.753Z" fill="#F1F1F1"/>
<path d="M198.731 101.753H168.209V122.496H198.731V101.753Z" fill="#F1F1F1"/>
<path d="M240.217 101.753H209.695V122.496H240.217V101.753Z" fill="#F1F1F1"/>
<path d="M281.704 101.753H251.182V122.496H281.704V101.753Z" fill="#F1F1F1"/>
<path d="M174.321 39.2273C176.448 39.2273 178.173 37.5025 178.173 35.375C178.173 33.2474 176.448 31.5227 174.321 31.5227C172.193 31.5227 170.468 33.2474 170.468 35.375C170.468 37.5025 172.193 39.2273 174.321 39.2273Z" fill="#D3C1FF"/>
<path d="M132.242 75.6757C134.369 75.6757 136.094 73.951 136.094 71.8234C136.094 69.6959 134.369 67.9711 132.242 67.9711C130.114 67.9711 128.39 69.6959 128.39 71.8234C128.39 73.951 130.114 75.6757 132.242 75.6757Z" fill="#D3C1FF"/>
<path d="M174.321 112.124C176.448 112.124 178.173 110.399 178.173 108.272C178.173 106.144 176.448 104.42 174.321 104.42C172.193 104.42 170.468 106.144 170.468 108.272C170.468 110.399 172.193 112.124 174.321 112.124Z" fill="#D3C1FF"/>
<path d="M216.696 75.6757C218.823 75.6757 220.548 73.951 220.548 71.8234C220.548 69.6959 218.823 67.9711 216.696 67.9711C214.568 67.9711 212.843 69.6959 212.843 71.8234C212.843 73.951 214.568 75.6757 216.696 75.6757Z" fill="#3F3D56"/>
<path d="M257.885 75.6757C260.013 75.6757 261.737 73.951 261.737 71.8234C261.737 69.6959 260.013 67.9711 257.885 67.9711C255.757 67.9711 254.033 69.6959 254.033 71.8234C254.033 73.951 255.757 75.6757 257.885 75.6757Z" fill="#3F3D56"/>
<path d="M132.242 112.124C134.369 112.124 136.094 110.399 136.094 108.272C136.094 106.144 134.369 104.42 132.242 104.42C130.114 104.42 128.39 106.144 128.39 108.272C128.39 110.399 130.114 112.124 132.242 112.124Z" fill="#3F3D56"/>
<path d="M31.238 145.066C35.1896 145.066 38.393 141.862 38.393 137.911C38.393 133.959 35.1896 130.756 31.238 130.756C27.2864 130.756 24.083 133.959 24.083 137.911C24.083 141.862 27.2864 145.066 31.238 145.066Z" fill="#FFB8B8"/>
<path d="M28.6544 180.248C28.5643 180.248 28.4738 180.244 28.3829 180.236C27.9329 180.199 27.4959 180.066 27.1006 179.848C26.7052 179.63 26.3604 179.331 26.0888 178.97C25.8172 178.609 25.6249 178.195 25.5245 177.755C25.4241 177.315 25.4178 176.858 25.5061 176.415C25.527 176.312 25.5533 176.211 25.5848 176.111L15.0246 163.621C14.6805 163.211 14.4778 162.701 14.4466 162.166C14.4154 161.632 14.5574 161.102 14.8514 160.654L14.8705 160.631L24.376 151.258C24.8951 150.747 25.5958 150.463 26.3241 150.468C27.0525 150.474 27.7489 150.768 28.2604 151.287C28.7718 151.806 29.0563 152.506 29.0514 153.234C29.0465 153.963 28.7526 154.659 28.2343 155.171C28.2224 155.183 28.2104 155.195 28.1982 155.206L21.3138 161.751L28.8506 173.848C28.9933 173.855 29.1354 173.872 29.2757 173.9C30.0553 174.055 30.7492 174.495 31.2228 175.134C31.6964 175.772 31.9158 176.564 31.8383 177.355C31.7609 178.146 31.3922 178.881 30.8038 179.415C30.2155 179.95 29.4494 180.247 28.6544 180.248Z" fill="#FFB8B8"/>
<path d="M43.0221 237.491H46.5938L48.2927 223.715L43.0215 223.715L43.0221 237.491Z" fill="#FFB8B8"/>
<path d="M42.1113 236.325L49.1448 236.324H49.1451C49.7337 236.324 50.3165 236.44 50.8604 236.666C51.4042 236.891 51.8983 237.221 52.3145 237.637C52.7307 238.053 53.0609 238.547 53.2862 239.091C53.5114 239.635 53.6274 240.218 53.6274 240.806V240.952L42.1115 240.953L42.1113 236.325Z" fill="#2F2E41"/>
<path d="M7.52393 232.553L10.5926 234.38L19.1005 223.413L14.5713 220.716L7.52393 232.553Z" fill="#FFB8B8"/>
<path d="M7.33734 231.085L13.3807 234.683L13.381 234.683C14.4024 235.291 15.1404 236.28 15.4326 237.433C15.7248 238.585 15.5473 239.806 14.9391 240.827L14.939 240.828L14.8645 240.953L4.96973 235.061L7.33734 231.085Z" fill="#2F2E41"/>
<path d="M47.4365 232.625H43.4373C43.1135 232.626 42.8009 232.506 42.5602 232.289C42.3194 232.073 42.1675 231.775 42.1338 231.453L38.1019 193.553C38.0917 193.458 38.0505 193.369 37.9844 193.299C37.9184 193.229 37.8313 193.183 37.7366 193.168C37.6419 193.153 37.5448 193.169 37.4603 193.215C37.3758 193.26 37.3086 193.332 37.2691 193.42L29.9956 209.525L17.1182 230.524C16.9515 230.793 16.6935 230.993 16.3913 231.087C16.0891 231.182 15.763 231.164 15.4727 231.038L10.3283 228.775C10.1582 228.7 10.006 228.589 9.88171 228.451C9.75743 228.313 9.66394 228.15 9.60745 227.973C9.55096 227.796 9.53275 227.609 9.55404 227.424C9.57532 227.24 9.6356 227.062 9.7309 226.902L21.5687 207.081L25.1993 190.38C24.0574 183.138 28.9526 172.37 29.0022 172.262L29.0265 172.209L42.5102 166.939L42.5779 167.022C47.8955 184.472 51.1358 203.252 48.7433 231.424C48.7138 231.751 48.5636 232.055 48.322 232.277C48.0804 232.499 47.7647 232.623 47.4365 232.625Z" fill="#2F2E41"/>
<path d="M28.4833 173.974L28.4205 173.842C28.3905 173.779 25.3922 167.455 23.081 160.697C22.6368 159.39 22.4689 158.005 22.5879 156.629C22.7069 155.254 23.1102 153.918 23.7722 152.707C24.4429 151.483 25.3604 150.412 26.4667 149.562C27.573 148.711 28.8438 148.099 30.1988 147.765C32.5511 147.202 35.0277 147.502 37.1774 148.611C39.327 149.72 41.0066 151.564 41.9103 153.808C43.7436 158.393 43.1593 163.286 42.6095 167.134L42.5985 167.211L42.5284 167.245L28.4833 173.974Z" fill="#D3C1FF"/>
<path d="M39.9131 133.869H28.5518V128.917C31.0454 127.926 33.4856 127.083 34.9607 128.917C36.2742 128.917 37.5338 129.438 38.4626 130.367C39.3913 131.296 39.9131 132.556 39.9131 133.869H39.9131Z" fill="#2F2E41"/>
<path d="M27.9231 128.043C21.1311 128.043 19.23 136.556 19.23 141.359C19.23 144.038 20.4413 144.996 22.3448 145.32L23.0171 141.735L24.5916 145.474C25.1263 145.477 25.688 145.466 26.2703 145.456L26.8042 144.356L27.9946 145.436C32.7625 145.443 36.616 146.138 36.616 141.359C36.616 136.556 34.9488 128.043 27.9231 128.043Z" fill="#2F2E41"/>
<path d="M58.1128 137.571C58.156 137.65 58.1959 137.731 58.2325 137.815C58.4153 138.228 58.5088 138.675 58.5068 139.126C58.5049 139.578 58.4075 140.024 58.2211 140.435C58.0348 140.847 57.7636 141.214 57.4254 141.513C57.0872 141.812 56.6895 142.037 56.2586 142.171C56.1583 142.202 56.0565 142.228 55.9535 142.249L50.0559 157.504C49.8609 158.002 49.5104 158.425 49.0563 158.709C48.6023 158.992 48.0688 159.122 47.5352 159.078L47.5056 159.073L34.723 155.225C34.0252 155.014 33.4395 154.536 33.0947 153.894C32.7498 153.252 32.6742 152.499 32.8843 151.801C33.0944 151.104 33.5731 150.518 34.2151 150.173C34.8571 149.828 35.6098 149.752 36.3076 149.963C36.3235 149.967 36.3394 149.972 36.3553 149.977L45.3996 152.881L52.4017 140.468C52.3398 140.339 52.2871 140.206 52.2438 140.069C52.0066 139.311 52.0599 138.491 52.3932 137.769C52.7265 137.047 53.3161 136.475 54.0476 136.164C54.779 135.853 55.6001 135.824 56.3513 136.084C57.1026 136.344 57.7304 136.874 58.1129 137.571L58.1128 137.571Z" fill="#FFB8B8"/>
</svg>
