<svg width="55" height="50" viewBox="0 0 55 50" fill="none" xmlns="http://www.w3.org/2000/svg">
<path d="M0 12C0 5.37258 5.37258 0 12 0H43C49.6274 0 55 5.37258 55 12V38C55 44.6274 49.6274 50 43 50H12C5.37258 50 0 44.6274 0 38V12Z" fill="#A33D3A"/>
<path d="M34.2355 6C34.317 6 34.3984 6 34.4845 6C34.6843 8.46827 33.7422 10.3126 32.5972 11.6481C31.4737 12.9745 29.9352 14.2609 27.447 14.0657C27.281 11.6328 28.2247 9.92526 29.3681 8.59276C30.4286 7.35094 32.3728 6.24591 34.2355 6Z" fill="#F08883"/>
<path d="M41.7679 31.6909C41.7679 31.7155 41.7679 31.737 41.7679 31.7601C41.0686 33.8779 40.0711 35.693 38.8539 37.3775C37.7427 38.9067 36.381 40.9646 33.9496 40.9646C31.8487 40.9646 30.4532 39.6137 28.3 39.5768C26.0223 39.5399 24.7697 40.7064 22.6872 41C22.449 41 22.2107 41 21.9771 41C20.4479 40.7787 19.2138 39.5676 18.3147 38.4764C15.6635 35.2519 13.6148 31.0869 13.2337 25.7569C13.2337 25.2344 13.2337 24.7134 13.2337 24.1908C13.395 20.3762 15.2485 17.2747 17.7122 15.7716C19.0124 14.9725 20.7998 14.2916 22.7901 14.5959C23.6431 14.7281 24.5146 15.0201 25.2784 15.309C26.0023 15.5872 26.9075 16.0806 27.7651 16.0544C28.3461 16.0375 28.9239 15.7348 29.5095 15.5211C31.2247 14.9018 32.9061 14.1917 35.1223 14.5252C37.7858 14.9279 39.6762 16.1113 40.8442 17.9371C38.5911 19.3711 36.8098 21.532 37.1141 25.2221C37.3846 28.5741 39.3334 30.5352 41.7679 31.6909Z" fill="#F08883"/>
</svg>
