<svg width="300" height="242" viewBox="0 0 300 242" fill="none" xmlns="http://www.w3.org/2000/svg">
<path d="M297.777 139.867H68.7154C68.1262 139.867 67.5612 139.632 67.1446 139.215C66.7279 138.799 66.4936 138.234 66.4929 137.645V2.22246C66.4936 1.63323 66.7279 1.06831 67.1446 0.651655C67.5612 0.235001 68.1262 0.000643238 68.7154 0H297.777C298.367 0.00064324 298.932 0.235002 299.348 0.651656C299.765 1.06831 299.999 1.63323 300 2.22246V137.645C299.999 138.234 299.765 138.799 299.348 139.215C298.932 139.632 298.367 139.867 297.777 139.867ZM68.7154 0.888985C68.3618 0.889371 68.0229 1.02999 67.7729 1.27998C67.5229 1.52997 67.3823 1.86892 67.3819 2.22246V137.645C67.3823 137.998 67.5229 138.337 67.7729 138.587C68.0229 138.837 68.3618 138.978 68.7154 138.978H297.777C298.131 138.978 298.47 138.837 298.72 138.587C298.97 138.337 299.11 137.998 299.111 137.645V2.22246C299.11 1.86892 298.97 1.52997 298.72 1.27998C298.47 1.02999 298.131 0.889371 297.777 0.888985H68.7154Z" fill="#E6E6E6"/>
<path d="M161.167 10.8155C160.704 10.8232 160.264 11.0123 159.94 11.3419C159.615 11.6715 159.434 12.1152 159.434 12.5775C159.434 13.0397 159.615 13.4835 159.94 13.8131C160.264 14.1427 160.704 14.3317 161.167 14.3394H205.345C205.811 14.3463 206.261 14.168 206.597 13.8437C206.932 13.5193 207.125 13.0753 207.133 12.6089C207.141 12.1426 206.964 11.6919 206.641 11.3558C206.318 11.0196 205.874 10.8254 205.408 10.8156L205.403 10.8155C205.384 10.8152 205.364 10.8152 205.345 10.8155H161.167Z" fill="#3F3D56"/>
<path d="M215.364 10.3249C215.298 10.3899 215.262 10.4781 215.262 10.57C215.262 10.662 215.298 10.7502 215.363 10.8152L215.364 10.8152L216.852 12.3036H213.182C213.09 12.3039 213.002 12.3406 212.937 12.4056C212.872 12.4705 212.836 12.5586 212.836 12.6504C212.836 12.7421 212.872 12.8302 212.937 12.8952C213.002 12.9602 213.09 12.9968 213.182 12.9971H216.852L215.364 14.4855C215.331 14.5177 215.306 14.5559 215.288 14.598C215.271 14.6401 215.262 14.6851 215.262 14.7307C215.262 14.7762 215.271 14.8213 215.288 14.8634C215.306 14.9054 215.331 14.9436 215.363 14.9758C215.396 15.008 215.434 15.0336 215.476 15.051C215.518 15.0684 215.563 15.0774 215.609 15.0774C215.654 15.0774 215.699 15.0684 215.741 15.051C215.783 15.0336 215.822 15.008 215.854 14.9759L217.934 12.8955C217.999 12.8305 218.036 12.7423 218.036 12.6504C218.036 12.5584 217.999 12.4702 217.934 12.4052L215.854 10.3249C215.822 10.2927 215.783 10.2671 215.741 10.2497C215.699 10.2323 215.654 10.2233 215.609 10.2233C215.563 10.2233 215.518 10.2323 215.476 10.2497C215.434 10.2671 215.396 10.2927 215.364 10.3249L215.364 10.3249Z" fill="#E6E6E6"/>
<path d="M151.129 10.3249C151.195 10.3899 151.231 10.4781 151.231 10.57C151.231 10.662 151.195 10.7502 151.13 10.8152L151.129 10.8152L149.641 12.3036H153.311C153.357 12.3035 153.402 12.3123 153.444 12.3296C153.487 12.3469 153.525 12.3724 153.557 12.4046C153.59 12.4367 153.615 12.475 153.633 12.5171C153.65 12.5592 153.659 12.6043 153.659 12.65C153.66 12.6956 153.651 12.7407 153.633 12.7829C153.616 12.825 153.59 12.8633 153.558 12.8956C153.526 12.9278 153.487 12.9534 153.445 12.9708C153.403 12.9882 153.358 12.9972 153.312 12.9971H149.641L151.129 14.4855C151.162 14.5177 151.187 14.5559 151.205 14.598C151.222 14.6401 151.231 14.6851 151.231 14.7307C151.231 14.7762 151.222 14.8213 151.205 14.8634C151.187 14.9054 151.162 14.9437 151.13 14.9759C151.097 15.008 151.059 15.0336 151.017 15.051C150.975 15.0684 150.93 15.0774 150.884 15.0774C150.839 15.0774 150.794 15.0684 150.752 15.051C150.71 15.0336 150.671 15.0081 150.639 14.9759L148.559 12.8955C148.494 12.8305 148.457 12.7423 148.457 12.6504C148.457 12.5584 148.494 12.4702 148.559 12.4052L150.639 10.3249C150.704 10.2599 150.792 10.2233 150.884 10.2233C150.976 10.2233 151.064 10.2598 151.129 10.3249L151.129 10.3249Z" fill="#E6E6E6"/>
<path d="M66.3605 147.327C64.3519 147.327 62.3883 146.731 60.7182 145.615C59.0481 144.499 57.7463 142.913 56.9777 141.057C56.209 139.202 56.0079 137.159 56.3997 135.189C56.7916 133.219 57.7589 131.41 59.1792 129.989C60.5995 128.569 62.4091 127.602 64.3792 127.21C66.3493 126.818 68.3913 127.019 70.247 127.788C72.1028 128.557 73.6889 129.858 74.8049 131.528C75.9208 133.199 76.5164 135.162 76.5164 137.171C76.5164 139.864 75.4464 142.447 73.5418 144.352C71.6372 146.257 69.054 147.327 66.3605 147.327Z" fill="#F08883"/>
<path d="M70.3677 136.169H67.3623V133.163C67.3623 132.898 67.2567 132.643 67.0688 132.455C66.881 132.267 66.6261 132.162 66.3604 132.162C66.0947 132.162 65.8399 132.267 65.652 132.455C65.4642 132.643 65.3586 132.898 65.3586 133.163V136.169H62.3531C62.0874 136.169 61.8326 136.274 61.6447 136.462C61.4569 136.65 61.3513 136.905 61.3513 137.171C61.3513 137.436 61.4569 137.691 61.6447 137.879C61.8326 138.067 62.0874 138.173 62.3531 138.173H65.3586V141.178C65.3586 141.444 65.4641 141.699 65.652 141.886C65.8399 142.074 66.0947 142.18 66.3604 142.18C66.6261 142.18 66.881 142.074 67.0688 141.886C67.2567 141.699 67.3623 141.444 67.3623 141.178V138.173H70.3677C70.6334 138.173 70.8882 138.067 71.0761 137.879C71.264 137.691 71.3695 137.436 71.3695 137.171C71.3695 136.905 71.264 136.65 71.0761 136.462C70.8882 136.274 70.6334 136.169 70.3677 136.169Z" fill="white"/>
<path d="M115.535 28.8558H85.0134V49.5988H115.535V28.8558Z" fill="#F1F1F1"/>
<path d="M157.021 28.8558H126.5V49.5988H157.021V28.8558Z" fill="#F1F1F1"/>
<path d="M198.507 28.8558H167.986V49.5988H198.507V28.8558Z" fill="#F1F1F1"/>
<path d="M239.994 28.8558H209.472V49.5988H239.994V28.8558Z" fill="#F1F1F1"/>
<path d="M281.479 28.8558H250.958V49.5988H281.479V28.8558Z" fill="#F1F1F1"/>
<path d="M115.647 65.3042H85.1255V86.0472H115.647V65.3042Z" fill="#F1F1F1"/>
<path d="M157.133 65.3042H126.612V86.0472H157.133V65.3042Z" fill="#F1F1F1"/>
<path d="M198.619 65.3042H168.097V86.0472H198.619V65.3042Z" fill="#F1F1F1"/>
<path d="M240.105 65.3042H209.583V86.0472H240.105V65.3042Z" fill="#F1F1F1"/>
<path d="M281.591 65.3042H251.07V86.0472H281.591V65.3042Z" fill="#F1F1F1"/>
<path d="M115.759 101.753H85.2373V122.496H115.759V101.753Z" fill="#F1F1F1"/>
<path d="M157.245 101.753H126.723V122.496H157.245V101.753Z" fill="#F1F1F1"/>
<path d="M198.731 101.753H168.209V122.496H198.731V101.753Z" fill="#F1F1F1"/>
<path d="M240.217 101.753H209.695V122.496H240.217V101.753Z" fill="#F1F1F1"/>
<path d="M281.703 101.753H251.181V122.496H281.703V101.753Z" fill="#F1F1F1"/>
<path d="M174.32 39.2273C176.448 39.2273 178.173 37.5025 178.173 35.375C178.173 33.2474 176.448 31.5227 174.32 31.5227C172.193 31.5227 170.468 33.2474 170.468 35.375C170.468 37.5025 172.193 39.2273 174.32 39.2273Z" fill="#F08883"/>
<path d="M132.242 75.6757C134.369 75.6757 136.094 73.951 136.094 71.8234C136.094 69.6959 134.369 67.9711 132.242 67.9711C130.114 67.9711 128.389 69.6959 128.389 71.8234C128.389 73.951 130.114 75.6757 132.242 75.6757Z" fill="#F08883"/>
<path d="M174.32 112.124C176.448 112.124 178.173 110.399 178.173 108.272C178.173 106.144 176.448 104.42 174.32 104.42C172.193 104.42 170.468 106.144 170.468 108.272C170.468 110.399 172.193 112.124 174.32 112.124Z" fill="#F08883"/>
<path d="M216.695 75.6757C218.823 75.6757 220.548 73.951 220.548 71.8234C220.548 69.6959 218.823 67.9711 216.695 67.9711C214.568 67.9711 212.843 69.6959 212.843 71.8234C212.843 73.951 214.568 75.6757 216.695 75.6757Z" fill="#3F3D56"/>
<path d="M257.885 75.6757C260.013 75.6757 261.737 73.951 261.737 71.8234C261.737 69.6959 260.013 67.9711 257.885 67.9711C255.757 67.9711 254.033 69.6959 254.033 71.8234C254.033 73.951 255.757 75.6757 257.885 75.6757Z" fill="#3F3D56"/>
<path d="M132.242 112.124C134.369 112.124 136.094 110.399 136.094 108.272C136.094 106.144 134.369 104.42 132.242 104.42C130.114 104.42 128.389 106.144 128.389 108.272C128.389 110.399 130.114 112.124 132.242 112.124Z" fill="#3F3D56"/>
<path d="M31.238 145.066C35.1896 145.066 38.393 141.862 38.393 137.911C38.393 133.959 35.1896 130.756 31.238 130.756C27.2864 130.756 24.083 133.959 24.083 137.911C24.083 141.862 27.2864 145.066 31.238 145.066Z" fill="#FFB8B8"/>
<path d="M28.6547 180.248C28.5645 180.248 28.474 180.244 28.3831 180.236C27.9331 180.199 27.4961 180.066 27.1008 179.848C26.7055 179.63 26.3607 179.331 26.0891 178.97C25.8175 178.609 25.6252 178.195 25.5247 177.755C25.4243 177.315 25.4181 176.858 25.5064 176.415C25.5272 176.312 25.5535 176.211 25.585 176.111L15.0248 163.621C14.6807 163.211 14.4781 162.701 14.4469 162.166C14.4157 161.632 14.5576 161.102 14.8516 160.654L14.8708 160.631L24.3762 151.258C24.8953 150.747 25.596 150.463 26.3244 150.468C27.0528 150.474 27.7492 150.768 28.2606 151.287C28.772 151.806 29.0565 152.506 29.0517 153.234C29.0468 153.963 28.7529 154.659 28.2346 155.171C28.2227 155.183 28.2106 155.195 28.1985 155.206L21.314 161.751L28.8508 173.848C28.9936 173.855 29.1356 173.872 29.2759 173.9C30.0555 174.055 30.7495 174.495 31.2231 175.134C31.6966 175.772 31.916 176.564 31.8386 177.355C31.7612 178.146 31.3925 178.881 30.8041 179.415C30.2157 179.95 29.4496 180.247 28.6547 180.248Z" fill="#FFB8B8"/>
<path d="M43.0221 237.491H46.5938L48.2927 223.715L43.0215 223.715L43.0221 237.491Z" fill="#FFB8B8"/>
<path d="M42.1113 236.325L49.1448 236.324H49.1451C49.7337 236.324 50.3165 236.44 50.8604 236.666C51.4042 236.891 51.8983 237.221 52.3145 237.637C52.7307 238.053 53.0609 238.547 53.2862 239.091C53.5114 239.635 53.6274 240.218 53.6274 240.806V240.952L42.1115 240.953L42.1113 236.325Z" fill="#2F2E41"/>
<path d="M7.52393 232.553L10.5926 234.38L19.1005 223.413L14.5713 220.716L7.52393 232.553Z" fill="#FFB8B8"/>
<path d="M7.33758 231.085L13.381 234.683L13.3812 234.683C14.4026 235.291 15.1406 236.28 15.4328 237.433C15.725 238.585 15.5475 239.806 14.9394 240.827L14.9393 240.828L14.8648 240.953L4.96997 235.061L7.33758 231.085Z" fill="#2F2E41"/>
<path d="M47.4365 232.625H43.4373C43.1135 232.626 42.8009 232.506 42.5602 232.289C42.3194 232.073 42.1675 231.775 42.1338 231.453L38.1019 193.553C38.0917 193.458 38.0505 193.369 37.9844 193.299C37.9184 193.229 37.8313 193.183 37.7366 193.168C37.6419 193.153 37.5448 193.169 37.4603 193.215C37.3758 193.26 37.3086 193.332 37.2691 193.42L29.9956 209.525L17.1182 230.524C16.9515 230.793 16.6935 230.993 16.3913 231.087C16.0891 231.182 15.763 231.164 15.4727 231.038L10.3283 228.775C10.1582 228.7 10.006 228.589 9.88171 228.451C9.75743 228.313 9.66394 228.15 9.60745 227.973C9.55096 227.796 9.53275 227.609 9.55404 227.424C9.57532 227.24 9.6356 227.062 9.7309 226.902L21.5687 207.081L25.1993 190.38C24.0574 183.137 28.9526 172.37 29.0022 172.262L29.0265 172.209L42.5102 166.939L42.5779 167.022C47.8955 184.472 51.1358 203.252 48.7433 231.424C48.7138 231.751 48.5636 232.055 48.322 232.277C48.0804 232.499 47.7647 232.623 47.4365 232.625Z" fill="#2F2E41"/>
<path d="M28.483 173.974L28.4202 173.842C28.3902 173.779 25.392 167.455 23.0808 160.696C22.6366 159.39 22.4687 158.005 22.5876 156.629C22.7066 155.254 23.1099 153.918 23.772 152.707C24.4427 151.483 25.3602 150.412 26.4665 149.562C27.5727 148.711 28.8436 148.099 30.1986 147.765C32.5509 147.202 35.0275 147.502 37.1771 148.611C39.3267 149.72 41.0064 151.564 41.91 153.808C43.7434 158.393 43.1591 163.286 42.6092 167.134L42.5983 167.211L42.5281 167.245L28.483 173.974Z" fill="#F08883"/>
<path d="M39.9131 133.869H28.5518V128.917C31.0454 127.926 33.4856 127.083 34.9607 128.917C36.2742 128.917 37.5338 129.438 38.4626 130.367C39.3913 131.296 39.9131 132.556 39.9131 133.869H39.9131Z" fill="#2F2E41"/>
<path d="M27.9228 128.043C21.1308 128.043 19.2297 136.556 19.2297 141.359C19.2297 144.038 20.4411 144.996 22.3446 145.32L23.0169 141.735L24.5913 145.474C25.126 145.477 25.6878 145.466 26.2701 145.456L26.8039 144.356L27.9944 145.436C32.7622 145.443 36.6158 146.138 36.6158 141.359C36.6158 136.556 34.9486 128.043 27.9228 128.043Z" fill="#2F2E41"/>
<path d="M58.1128 137.571C58.156 137.65 58.1959 137.731 58.2325 137.815C58.4153 138.228 58.5088 138.675 58.5068 139.126C58.5049 139.578 58.4075 140.024 58.2211 140.435C58.0348 140.847 57.7636 141.214 57.4254 141.513C57.0872 141.812 56.6895 142.037 56.2586 142.171C56.1583 142.202 56.0565 142.228 55.9535 142.248L50.0559 157.504C49.8609 158.002 49.5104 158.425 49.0563 158.709C48.6023 158.992 48.0688 159.122 47.5352 159.078L47.5056 159.073L34.723 155.225C34.0252 155.014 33.4395 154.536 33.0947 153.894C32.7498 153.252 32.6742 152.499 32.8843 151.801C33.0944 151.104 33.5731 150.518 34.2151 150.173C34.8571 149.828 35.6098 149.752 36.3076 149.963C36.3235 149.967 36.3394 149.972 36.3553 149.977L45.3996 152.881L52.4017 140.468C52.3398 140.339 52.2871 140.206 52.2438 140.069C52.0066 139.311 52.0599 138.491 52.3932 137.769C52.7265 137.047 53.3161 136.475 54.0476 136.164C54.779 135.853 55.6001 135.824 56.3513 136.084C57.1026 136.344 57.7304 136.874 58.1129 137.571L58.1128 137.571Z" fill="#FFB8B8"/>
</svg>
