<svg width="50" height="51" viewBox="0 0 50 51" fill="none" xmlns="http://www.w3.org/2000/svg">
<path d="M11.3515 17.8319L9.45624 19.0546L29.1939 48.657L31.0891 47.4343L11.3515 17.8319Z" fill="#E6E6E6"/>
<path d="M6.83946 6.69172L11.2244 13.2682C11.3093 13.3955 11.3393 13.5509 11.3078 13.7C11.2763 13.8491 11.1859 13.9798 11.0564 14.0633C10.9269 14.1469 10.769 14.1764 10.6174 14.1454C10.4658 14.1144 10.333 14.0254 10.2481 13.8981L5.20706 6.33763C4.52282 6.28143 3.83507 6.39253 3.20504 6.66106L8.69742 14.8985C8.78228 15.0258 8.81224 15.1811 8.78072 15.3302C8.7492 15.4793 8.65877 15.61 8.52933 15.6935C8.39989 15.777 8.24203 15.8065 8.09046 15.7755C7.93889 15.7446 7.80603 15.6557 7.7211 15.5284L2.22872 7.29095C1.72731 7.75238 1.34969 8.32861 1.12947 8.96834L6.17047 16.5288C6.25532 16.6561 6.28529 16.8114 6.25376 16.9605C6.22224 17.1096 6.13182 17.2403 6.00238 17.3238C5.87293 17.4073 5.71507 17.4368 5.56351 17.4058C5.41194 17.3749 5.27908 17.286 5.19414 17.1587L0.809224 10.5822C0.6966 12.4159 1.30438 14.5893 2.63637 16.587C5.11194 20.2998 9.15008 21.9992 11.6558 20.3826C14.1616 18.7659 14.186 14.4456 11.7104 10.7327C10.3784 8.73502 8.59409 7.32072 6.83946 6.69172Z" fill="#E6E6E6"/>
<path d="M19.8489 13.7822H17.5824V49.1836H19.8489V13.7822Z" fill="#E6E6E6"/>
<path d="M18.6813 16.0793C21.6779 16.0793 24.1071 12.4798 24.1071 8.03964C24.1071 3.59947 21.6779 0 18.6813 0C15.6847 0 13.2555 3.59947 13.2555 8.03964C13.2555 12.4798 15.6847 16.0793 18.6813 16.0793Z" fill="#E6E6E6"/>
<path d="M18.6813 14.6545C21.1469 14.6545 23.1456 11.6929 23.1456 8.03963C23.1456 4.38633 21.1469 1.42474 18.6813 1.42474C16.2158 1.42474 14.217 4.38633 14.217 8.03963C14.217 11.6929 16.2158 14.6545 18.6813 14.6545Z" fill="#CCCCCC"/>
<path d="M25 51C38.8071 51 50 50.3683 50 49.589C50 48.8097 38.8071 48.178 25 48.178C11.1929 48.178 0 48.8097 0 49.589C0 50.3683 11.1929 51 25 51Z" fill="#E6E6E6"/>
<path d="M39.7849 49.5683C30.4159 47.9071 20.8204 47.9071 11.4514 49.5683C11.3026 49.5948 11.1496 49.5889 11.0034 49.5509C10.8571 49.513 10.7212 49.4439 10.605 49.3486C10.4889 49.2533 10.3954 49.1341 10.3312 48.9994C10.267 48.8646 10.2337 48.7177 10.2335 48.5689V35.9419H41.0027V48.5689C41.0026 48.7177 40.9692 48.8646 40.905 48.9994C40.8409 49.1341 40.7474 49.2533 40.6312 49.3486C40.5151 49.4439 40.3791 49.513 40.2329 49.5509C40.0866 49.5889 39.9337 49.5948 39.7849 49.5683Z" fill="#F08883"/>
<path d="M38.1868 26.6186C37.4764 26.618 36.7708 26.7341 36.0993 26.9622C35.1198 24.8724 33.5546 23.1008 31.5875 21.8553C29.6203 20.6097 27.3329 19.942 24.9935 19.9303C22.6541 19.9187 20.3598 20.5637 18.38 21.7896C16.4002 23.0155 14.8169 24.7715 13.816 26.8515C12.8304 26.5795 11.7928 26.5445 10.7906 26.7495C9.78842 26.9544 8.85096 27.3933 8.05722 28.0291C7.26348 28.6649 6.6367 29.479 6.22968 30.4029C5.82266 31.3268 5.64732 32.3334 5.71844 33.3379C5.78955 34.3424 6.10504 35.3153 6.63831 36.1748C7.17159 37.0343 7.90704 37.7551 8.78272 38.2766C9.65839 38.798 10.6486 39.1048 11.67 39.1711C12.6915 39.2374 13.7141 39.0613 14.6518 38.6576C15.7789 40.347 17.3184 41.7318 19.1296 42.6853C20.9408 43.6389 22.966 44.1309 25.0202 44.1163C27.0744 44.1018 29.0922 43.5812 30.8893 42.6021C32.6863 41.623 34.2054 40.2166 35.3076 38.5114C36.1688 38.939 37.1172 39.1693 38.0818 39.1848C39.0463 39.2003 40.0019 39.0008 40.8768 38.6011C41.7517 38.2015 42.5233 37.6121 43.1336 36.8771C43.7438 36.1422 44.1769 35.2809 44.4004 34.3578C44.6239 33.4347 44.6319 32.4738 44.4239 31.5472C44.2159 30.6206 43.7973 29.7524 43.1994 29.0077C42.6015 28.263 41.8399 27.6612 40.9718 27.2474C40.1036 26.8337 39.1515 26.6187 38.1868 26.6186Z" fill="#F08883"/>
<path d="M12.706 32.0234H12.5686C12.564 30.2245 12.9687 28.4473 13.7532 26.8223L13.8774 26.8801C13.1016 28.4871 12.7013 30.2445 12.706 32.0234Z" fill="#3F3D56"/>
<path d="M37.2939 32.0234H37.1566C37.1608 30.2854 36.7789 28.5676 36.0375 26.9901L36.1622 26.9335C36.912 28.5287 37.2982 30.2659 37.2939 32.0234Z" fill="#3F3D56"/>
<path d="M10.2501 41.8176L10.2169 41.6864C10.2557 41.677 14.1595 40.7339 19.8804 40.2659C25.1607 39.834 33.1144 39.7298 41.0195 41.6865L40.986 41.8175C33.1002 39.8657 25.1639 39.9695 19.8947 40.4004C14.184 40.8673 10.2887 41.8082 10.2501 41.8176Z" fill="#3F3D56"/>
<path d="M10.2501 43.6418L10.2169 43.5106C10.2557 43.5012 14.1595 42.558 19.8804 42.0901C25.1607 41.6582 33.1144 41.554 41.0195 43.5107L40.986 43.6417C33.1002 41.6899 25.1639 41.7938 19.8947 42.2245C14.184 42.6914 10.2887 43.6323 10.2501 43.6418Z" fill="#3F3D56"/>
<path d="M10.2501 45.4659L10.2169 45.3347C10.2557 45.3253 14.1595 44.3821 19.8804 43.9141C25.1607 43.4823 33.1144 43.3781 41.0195 45.3348L40.986 45.4658C33.1002 43.514 25.1639 43.6178 19.8947 44.0486C14.184 44.5155 10.2887 45.4564 10.2501 45.4659Z" fill="#3F3D56"/>
<path d="M35.5265 35.547L33.8624 34.9905L35.46 26.9692L34.3616 26.8709C33.2906 27.6792 31.8644 27.9961 30.0348 27.7549L32.9637 32.1093L31.4702 33.1463L26.706 27.525C26.4912 27.2716 26.3736 26.9522 26.3736 26.6223C26.3736 26.3165 26.4747 26.0189 26.6617 25.7746C26.8486 25.5302 27.1113 25.3523 27.41 25.2677L32.4978 23.8261L38.4555 24.4809C39.3562 25.8317 39.3914 26.7712 38.0203 27.0422L35.5265 35.547Z" fill="#2F2E41"/>
<path d="M33.8233 38.6675C33.6513 38.6567 33.4842 38.6063 33.3357 38.5201C33.1873 38.434 33.0615 38.3147 32.9688 38.1718C32.876 38.0289 32.8188 37.8664 32.8018 37.6977C32.7848 37.529 32.8085 37.3587 32.871 37.2007L33.6983 35.108C34.1186 34.3249 34.6953 34.4229 35.3764 35.108L35.7092 36.0684C35.7366 36.1474 35.7475 36.2311 35.7412 36.3145C35.7349 36.3978 35.7115 36.479 35.6725 36.5532L34.8661 38.0868C34.7683 38.2727 34.6177 38.4266 34.4325 38.5297C34.2473 38.6328 34.0356 38.6807 33.8233 38.6675Z" fill="#2F2E41"/>
<path d="M31.6725 35.9271C31.5005 35.9164 31.3335 35.8659 31.185 35.7798C31.0365 35.6936 30.9108 35.5743 30.818 35.4314C30.7252 35.2885 30.668 35.1261 30.651 34.9573C30.634 34.7886 30.6577 34.6183 30.7202 34.4603L31.5476 32.3676C31.9678 31.5845 32.5446 31.6825 33.2256 32.3676L33.5585 33.328C33.5859 33.407 33.5967 33.4907 33.5904 33.5741C33.5841 33.6574 33.5607 33.7386 33.5217 33.8128L32.7153 35.3464C32.6175 35.5323 32.4669 35.6862 32.2817 35.7893C32.0966 35.8924 31.8849 35.9403 31.6725 35.9271Z" fill="#2F2E41"/>
<path d="M32.7308 16.165C33.7602 16.165 34.5946 15.3441 34.5946 14.3315C34.5946 13.319 33.7602 12.4981 32.7308 12.4981C31.7014 12.4981 30.8669 13.319 30.8669 14.3315C30.8669 15.3441 31.7014 16.165 32.7308 16.165Z" fill="#FFB9B9"/>
<path d="M35.6265 16.918L33.0636 18.2276L32.5311 15.8703L34.2951 14.7899L35.6265 16.918Z" fill="#FFB9B9"/>
<path d="M38.7218 24.8083C36.1645 24.0485 33.8442 23.6549 32.165 24.2517C32.7438 22.65 31.6754 20.2041 30.5008 17.7037C31.0076 17.052 31.8158 16.7996 32.7308 16.6888C33.7319 17.4039 34.43 16.9449 34.9608 15.8376C36.1183 15.7919 37.2338 16.1951 38.3224 16.8852C37.4714 19.5664 37.6246 22.2066 38.7218 24.8083Z" fill="#3F3D56"/>
<path d="M32.1316 24.6446C31.7278 24.8788 31.3551 25.2732 31 25.7578C30.3998 25.3964 29.8717 24.985 29.4556 24.4956C29.1644 24.1486 28.9658 23.7356 28.8779 23.294C28.79 22.8525 28.8155 22.3963 28.9522 21.9669L30.0896 18.3307C30.184 18.0287 30.3676 17.7611 30.6169 17.5618L30.767 17.4418L32.2648 20.2247L30.767 22.9749C30.9569 23.4758 31.5166 24.0544 32.1316 24.6446Z" fill="#3F3D56"/>
<path d="M32.6472 27.417C32.5114 27.4779 32.3631 27.5069 32.2139 27.5017C32.0648 27.4964 31.9189 27.4571 31.7879 27.3869C31.6568 27.3166 31.5442 27.2174 31.4589 27.0969C31.3736 26.9764 31.318 26.8381 31.2964 26.6929L31.0489 25.0259L31.9143 24.5675L33.0125 25.9818C33.1003 26.0947 33.161 26.2257 33.1902 26.3649C33.2194 26.5041 33.2163 26.648 33.1812 26.7859C33.1461 26.9238 33.0799 27.0522 32.9874 27.1614C32.895 27.2707 32.7787 27.358 32.6472 27.417Z" fill="#FFB9B9"/>
<path d="M34.6113 14.2513L34.2931 14.2606L33.4103 13.0305C32.2791 13.1455 31.3523 13.629 30.5679 14.3694L30.4884 13.8479C30.4125 13.3505 30.5333 12.8435 30.8259 12.4311C31.1185 12.0187 31.5606 11.7322 32.0614 11.6307H32.0614C32.3244 11.5773 32.5956 11.5766 32.8589 11.6287C33.1222 11.6808 33.3721 11.7845 33.5937 11.9337C33.8154 12.0828 34.0042 12.2744 34.1488 12.497C34.2935 12.7195 34.3911 12.9685 34.4358 13.2289L34.6113 14.2513Z" fill="#2F2E41"/>
<path d="M31.0322 25.7585C30.9702 25.6249 30.9408 25.479 30.9461 25.3323C30.9514 25.1856 30.9914 25.0421 31.0628 24.9132C31.1342 24.7843 31.2351 24.6735 31.3576 24.5896C31.48 24.5057 31.6207 24.451 31.7683 24.4298L33.463 24.1863L33.929 25.0375L32.4912 26.1179C32.3764 26.2041 32.2432 26.2639 32.1017 26.2926C31.9602 26.3213 31.8139 26.3183 31.6737 26.2838C31.5335 26.2493 31.403 26.1841 31.292 26.0931C31.1809 26.0022 31.0921 25.8878 31.0322 25.7585Z" fill="#FFB9B9"/>
<path d="M39.0447 24.2421C37.4323 24.3653 35.672 24.8599 33.8291 25.5614C33.8062 25.0233 33.6078 24.5067 33.2633 24.0881C34.9371 23.6544 36.4559 23.1455 37.3904 22.3529L36.8246 18.1621L38.0561 16.787L38.2685 16.8961C38.4449 16.9862 38.6001 17.1119 38.724 17.2649C38.8479 17.4178 38.9377 17.5947 38.9875 17.784C39.5075 19.7736 39.7385 21.6799 39.5797 23.4738C39.6002 23.6439 39.5573 23.8155 39.4589 23.9568C39.3605 24.0981 39.2133 24.1995 39.0447 24.2421Z" fill="#3F3D56"/>
<path d="M6.5856 49.1911C5.08612 50.1137 3.58665 50.1133 2.08716 49.19C2.03969 49.1612 2.00114 49.1202 1.9757 49.0714C1.95026 49.0226 1.93889 48.9679 1.94284 48.9132L2.41073 42.9301H6.19511L6.72965 48.9111C6.73426 48.9663 6.72324 49.0217 6.69782 49.0711C6.67239 49.1206 6.63355 49.1621 6.5856 49.1911Z" fill="#3F3D56"/>
<path d="M4.28543 43.6746C5.3401 43.6746 6.19508 43.3716 6.19508 42.9978C6.19508 42.624 5.3401 42.3209 4.28543 42.3209C3.23077 42.3209 2.37579 42.624 2.37579 42.9978C2.37579 43.3716 3.23077 43.6746 4.28543 43.6746Z" fill="#3F3D56"/>
<path d="M5.78222 42.7693C4.78714 43.4578 3.82385 43.4578 2.89233 42.7693V41.6863H5.78222V42.7693Z" fill="#F08883"/>
<path d="M4.33728 42.2278C5.1353 42.2278 5.78222 41.9854 5.78222 41.6864C5.78222 41.3873 5.1353 41.1449 4.33728 41.1449C3.53926 41.1449 2.89233 41.3873 2.89233 41.6864C2.89233 41.9854 3.53926 42.2278 4.33728 42.2278Z" fill="#F08883"/>
<path d="M4.40611 41.6863C4.48211 41.6863 4.54372 41.656 4.54372 41.6186C4.54372 41.5813 4.48211 41.551 4.40611 41.551C4.33011 41.551 4.26849 41.5813 4.26849 41.6186C4.26849 41.656 4.33011 41.6863 4.40611 41.6863Z" fill="#E6E6E6"/>
<path d="M5.05589 41.6863C5.13189 41.6863 5.1935 41.656 5.1935 41.6186C5.1935 41.5813 5.13189 41.551 5.05589 41.551C4.97989 41.551 4.91827 41.5813 4.91827 41.6186C4.91827 41.656 4.97989 41.6863 5.05589 41.6863Z" fill="#E6E6E6"/>
<path d="M4.731 41.8462C4.807 41.8462 4.86861 41.8159 4.86861 41.7785C4.86861 41.7411 4.807 41.7108 4.731 41.7108C4.655 41.7108 4.59338 41.7411 4.59338 41.7785C4.59338 41.8159 4.655 41.8462 4.731 41.8462Z" fill="#E6E6E6"/>
<path d="M3.43137 41.8462C3.50738 41.8462 3.56899 41.8159 3.56899 41.7785C3.56899 41.7411 3.50738 41.7108 3.43137 41.7108C3.35537 41.7108 3.29376 41.7411 3.29376 41.7785C3.29376 41.8159 3.35537 41.8462 3.43137 41.8462Z" fill="#E6E6E6"/>
<path d="M3.75633 41.6863C3.83233 41.6863 3.89394 41.656 3.89394 41.6186C3.89394 41.5813 3.83233 41.551 3.75633 41.551C3.68033 41.551 3.61871 41.5813 3.61871 41.6186C3.61871 41.656 3.68033 41.6863 3.75633 41.6863Z" fill="#E6E6E6"/>
<path d="M4.08122 41.9261C4.15722 41.9261 4.21883 41.8958 4.21883 41.8584C4.21883 41.821 4.15722 41.7907 4.08122 41.7907C4.00522 41.7907 3.9436 41.821 3.9436 41.8584C3.9436 41.8958 4.00522 41.9261 4.08122 41.9261Z" fill="#E6E6E6"/>
<path d="M48.1378 49.1911C46.6383 50.1137 45.1388 50.1133 43.6393 49.19C43.5919 49.1612 43.5533 49.1202 43.5279 49.0714C43.5024 49.0226 43.4911 48.9679 43.495 48.9132L43.9629 42.9301H47.7473L48.2818 48.9111C48.2864 48.9663 48.2754 49.0217 48.25 49.0711C48.2245 49.1206 48.1857 49.1621 48.1378 49.1911Z" fill="#3F3D56"/>
<path d="M45.8376 43.6746C46.8923 43.6746 47.7473 43.3716 47.7473 42.9978C47.7473 42.624 46.8923 42.3209 45.8376 42.3209C44.783 42.3209 43.928 42.624 43.928 42.9978C43.928 43.3716 44.783 43.6746 45.8376 43.6746Z" fill="#3F3D56"/>
<path d="M47.3345 42.7693C46.3394 43.4578 45.3761 43.4578 44.4446 42.7693V41.6863H47.3345V42.7693Z" fill="#F08883"/>
<path d="M45.8895 42.2278C46.6875 42.2278 47.3345 41.9854 47.3345 41.6864C47.3345 41.3873 46.6875 41.1449 45.8895 41.1449C45.0915 41.1449 44.4446 41.3873 44.4446 41.6864C44.4446 41.9854 45.0915 42.2278 45.8895 42.2278Z" fill="#F08883"/>
<path d="M45.9583 41.6863C46.0343 41.6863 46.0959 41.656 46.0959 41.6186C46.0959 41.5813 46.0343 41.551 45.9583 41.551C45.8823 41.551 45.8207 41.5813 45.8207 41.6186C45.8207 41.656 45.8823 41.6863 45.9583 41.6863Z" fill="#E6E6E6"/>
<path d="M46.6081 41.6863C46.6841 41.6863 46.7457 41.656 46.7457 41.6186C46.7457 41.5813 46.6841 41.551 46.6081 41.551C46.5321 41.551 46.4705 41.5813 46.4705 41.6186C46.4705 41.656 46.5321 41.6863 46.6081 41.6863Z" fill="#E6E6E6"/>
<path d="M46.2832 41.8462C46.3592 41.8462 46.4208 41.8159 46.4208 41.7785C46.4208 41.7411 46.3592 41.7108 46.2832 41.7108C46.2072 41.7108 46.1456 41.7411 46.1456 41.7785C46.1456 41.8159 46.2072 41.8462 46.2832 41.8462Z" fill="#E6E6E6"/>
<path d="M44.9836 41.8462C45.0596 41.8462 45.1212 41.8159 45.1212 41.7785C45.1212 41.7411 45.0596 41.7108 44.9836 41.7108C44.9076 41.7108 44.846 41.7411 44.846 41.7785C44.846 41.8159 44.9076 41.8462 44.9836 41.8462Z" fill="#E6E6E6"/>
<path d="M45.3085 41.6863C45.3845 41.6863 45.4461 41.656 45.4461 41.6186C45.4461 41.5813 45.3845 41.551 45.3085 41.551C45.2325 41.551 45.1709 41.5813 45.1709 41.6186C45.1709 41.656 45.2325 41.6863 45.3085 41.6863Z" fill="#E6E6E6"/>
<path d="M45.6334 41.9261C45.7094 41.9261 45.771 41.8958 45.771 41.8584C45.771 41.821 45.7094 41.7907 45.6334 41.7907C45.5574 41.7907 45.4958 41.821 45.4958 41.8584C45.4958 41.8958 45.5574 41.9261 45.6334 41.9261Z" fill="#E6E6E6"/>
</svg>
