<svg width="60" height="50" viewBox="0 0 60 50" fill="none" xmlns="http://www.w3.org/2000/svg">
<path d="M39.0581 49.4409L27.8184 29.3058C27.8152 29.2566 27.7998 29.2088 27.7737 29.1669C27.7475 29.1249 27.7113 29.09 27.6683 29.0652C27.6191 29.0371 27.5627 29.0236 27.506 29.0262C27.5042 29.0261 27.5023 29.0262 27.5005 29.0261C27.4987 29.0262 27.4968 29.0261 27.495 29.0262C27.4181 29.0226 27.3428 29.0487 27.2849 29.099C27.2269 29.1494 27.1907 29.22 27.184 29.2962L15.2715 49.4409C15.2517 49.4751 15.2388 49.5128 15.2336 49.5519C15.2284 49.5909 15.231 49.6307 15.2412 49.6688C15.2515 49.7069 15.2692 49.7426 15.2934 49.7739C15.3175 49.8051 15.3476 49.8314 15.382 49.8511C15.4164 49.8708 15.4543 49.8836 15.4937 49.8888C15.533 49.8939 15.573 49.8913 15.6113 49.8811C15.6497 49.8709 15.6856 49.8533 15.7171 49.8292C15.7486 49.8052 15.775 49.7753 15.7948 49.7411L27.4925 29.9597L38.5348 49.7411C38.5547 49.7753 38.5811 49.8052 38.6125 49.8292C38.644 49.8533 38.68 49.8709 38.7183 49.8811C38.7566 49.8913 38.7966 49.8939 38.8359 49.8888C38.8753 49.8836 38.9132 49.8708 38.9476 49.8511C38.982 49.8314 39.0121 49.8051 39.0363 49.7739C39.0604 49.7426 39.0781 49.7069 39.0884 49.6688C39.0987 49.6307 39.1013 49.5909 39.0961 49.5519C39.0909 49.5128 39.078 49.4751 39.0581 49.4409Z" fill="#3F3D56"/>
<path d="M25.6381 45.9863L26.9085 45.6966L26.3888 40.6899L24.5138 41.1173L25.6381 45.9863Z" fill="#FFB6B6"/>
<path d="M26.6203 43.5676L24.8124 43.9797L24.2343 42.8572L24.2015 42.8174C23.9451 42.5047 23.8027 42.1149 23.7977 41.7115L22.295 37.7619L22.1721 37.7038C22.077 37.6589 21.9927 37.5943 21.9248 37.5145C21.8568 37.4346 21.8068 37.3412 21.7781 37.2406C21.7493 37.14 21.7425 37.0344 21.7581 36.931C21.7737 36.8276 21.8113 36.7286 21.8684 36.6408L21.7093 36.2227L17.2203 36.2309L17.2159 36.2296L11.7034 34.6932L12.2822 31.265L13.8329 32.2341C14.3438 32.2012 23.0966 31.6672 23.9052 33.6162C24.6253 35.3518 25.6629 38.317 26.4065 40.4988C26.4436 40.5968 26.4897 40.6911 26.5442 40.7807C26.6599 40.9577 26.7278 41.1614 26.7414 41.372C26.7502 41.4637 26.7678 41.5543 26.794 41.6426C27.103 42.5607 26.6322 43.5434 26.6274 43.5532L26.6203 43.5676Z" fill="#2F2E41"/>
<path d="M25.2089 45.5676L25.622 45.4735L27.0842 44.4543L28.0989 44.9088L28.099 44.9088C28.5875 44.7975 29.1004 44.8835 29.5251 45.148C29.9497 45.4124 30.2512 45.8336 30.3633 46.3189L30.377 46.3784L25.6452 47.4571L25.2089 45.5676Z" fill="#2F2E41"/>
<path d="M6.451 45.6801C6.58017 44.2832 7.4037 42.8846 8.72457 42.3892C8.24418 43.8381 8.29508 45.4092 8.86827 46.8244C9.09132 47.3694 9.39651 47.9525 9.22145 48.5145C9.11253 48.8642 8.82727 49.1382 8.5042 49.3142C8.1811 49.4901 7.81914 49.5806 7.4617 49.6694L7.39274 49.7299C6.77989 48.4661 6.32183 47.0771 6.451 45.6801Z" fill="#F0F0F0"/>
<path d="M8.73862 42.415C7.98887 43.3057 7.54064 44.4084 7.45758 45.5666C7.43525 45.8156 7.45256 46.0666 7.50887 46.3103C7.57145 46.5459 7.69639 46.7605 7.87069 46.9319C8.02998 47.095 8.21193 47.2434 8.32855 47.4421C8.38673 47.5447 8.42243 47.6583 8.4333 47.7756C8.44418 47.8929 8.42998 48.0111 8.39165 48.1225C8.30341 48.4026 8.11913 48.6345 7.931 48.855C7.72211 49.0999 7.50124 49.351 7.41937 49.6694C7.40945 49.708 7.34978 49.6904 7.35969 49.6519C7.50212 49.0979 8.02828 48.769 8.26803 48.2665C8.37991 48.032 8.42133 47.7626 8.30159 47.5227C8.19688 47.3128 8.00939 47.1596 7.84667 46.9959C7.67416 46.8312 7.54487 46.627 7.4701 46.4011C7.40148 46.1611 7.37447 45.9112 7.39022 45.6622C7.41669 45.101 7.53181 44.5474 7.73135 44.0217C7.95574 43.4205 8.28198 42.8619 8.69596 42.37C8.7216 42.3395 8.76408 42.3848 8.73862 42.415L8.73862 42.415Z" fill="white"/>
<path d="M7.46227 45.1922C7.26859 45.1519 7.0956 45.0446 6.97421 44.8894C6.85281 44.7341 6.79092 44.541 6.79957 44.3446C6.79999 44.3366 6.80353 44.3291 6.80943 44.3236C6.81534 44.3181 6.82315 44.3152 6.83122 44.3153C6.83928 44.3155 6.84698 44.3187 6.85269 44.3244C6.85839 44.33 6.86166 44.3377 6.8618 44.3457C6.8534 44.5286 6.91108 44.7084 7.02442 44.8528C7.13776 44.9971 7.2993 45.0965 7.47987 45.1329C7.5191 45.1408 7.50128 45.2001 7.46227 45.1922H7.46227Z" fill="white"/>
<path d="M7.77898 46.8598C8.11943 46.6428 8.36506 46.3063 8.46688 45.9173C8.47694 45.8788 8.53661 45.8963 8.52657 45.9348C8.41985 46.3394 8.16352 46.6891 7.80874 46.9141C7.77491 46.9356 7.74534 46.8811 7.77898 46.8598H7.77898Z" fill="white"/>
<path d="M8.01539 43.4775C8.08706 43.5087 8.16539 43.5217 8.24332 43.5153C8.32126 43.5088 8.39637 43.4831 8.46191 43.4404C8.49545 43.4184 8.52498 43.4732 8.49166 43.495C8.41904 43.5418 8.33605 43.5701 8.24996 43.5775C8.16387 43.5848 8.07729 43.571 7.99779 43.5371C7.99003 43.5346 7.98353 43.5292 7.97962 43.522C7.97572 43.5148 7.97469 43.5064 7.97675 43.4985C7.97912 43.4906 7.98451 43.484 7.99174 43.48C7.99898 43.4761 8.00748 43.4752 8.01539 43.4775H8.01539Z" fill="white"/>
<path d="M12.8757 44.7444C12.8551 44.7586 12.8346 44.7729 12.814 44.7876C12.5387 44.9803 12.2796 45.195 12.0393 45.4294C12.0204 45.4473 12.0016 45.4656 11.9832 45.484C11.4103 46.0549 10.949 46.7266 10.6228 47.4648C10.4933 47.7587 10.3864 48.062 10.3032 48.372C10.1883 48.8001 10.098 49.2734 9.85465 49.6283C9.82967 49.6656 9.8024 49.7014 9.77298 49.7353L7.47232 49.8088C7.46701 49.8063 7.46168 49.8044 7.45635 49.802L7.36462 49.8091C7.36779 49.7928 7.37143 49.776 7.3746 49.7597C7.3764 49.7502 7.37871 49.7408 7.3805 49.7313C7.38187 49.725 7.38325 49.7187 7.38412 49.7129C7.38456 49.7108 7.38503 49.7087 7.3855 49.7071C7.38636 49.7014 7.38778 49.6961 7.38867 49.6908C7.40874 49.5967 7.42951 49.5026 7.45099 49.4085C7.45097 49.408 7.45097 49.408 7.45147 49.4074C7.60821 48.6886 7.85022 47.9907 8.17243 47.3285C8.18231 47.3088 8.19215 47.2887 8.20309 47.269C8.35272 46.9756 8.52624 46.6949 8.7219 46.4296C8.82951 46.2847 8.94443 46.1453 9.06623 46.0119C9.3816 45.6679 9.74946 45.3754 10.1563 45.145C10.9675 44.6857 11.9174 44.4894 12.8079 44.7257C12.8306 44.7317 12.8529 44.7378 12.8757 44.7444Z" fill="#F0F0F0"/>
<path d="M12.8714 44.7735C11.7331 45.0362 10.707 45.6485 9.93888 46.5236C9.77016 46.7091 9.63191 46.9198 9.52922 47.1481C9.43643 47.3736 9.40611 47.6197 9.44143 47.8609C9.46981 48.0863 9.52512 48.3137 9.49785 48.5421C9.48214 48.6588 9.44178 48.7709 9.37941 48.8711C9.31704 48.9712 9.23408 49.0571 9.13595 49.1231C8.89577 49.294 8.60812 49.3689 8.32427 49.4324C8.0091 49.503 7.68062 49.5713 7.42231 49.7766C7.39101 49.8015 7.354 49.7518 7.38525 49.7269C7.83466 49.3698 8.45406 49.422 8.95 49.1642C9.18141 49.0438 9.37773 48.8535 9.42751 48.5903C9.47105 48.3602 9.41421 48.1256 9.38349 47.8976C9.34556 47.6628 9.36606 47.4225 9.44319 47.1974C9.53385 46.9647 9.66369 46.7491 9.82718 46.5596C10.1884 46.1274 10.6157 45.7542 11.0936 45.4539C11.6371 45.1081 12.2361 44.8572 12.8647 44.7121C12.9036 44.7031 12.9101 44.7646 12.8714 44.7735V44.7735Z" fill="white"/>
<path d="M10.1696 46.2273C10.0393 46.0794 9.9662 45.8902 9.96334 45.6936C9.96049 45.4971 10.0281 45.3059 10.154 45.1542C10.1796 45.1236 10.2286 45.1617 10.203 45.1923C10.0855 45.3333 10.0226 45.5114 10.0256 45.6945C10.0286 45.8775 10.0974 46.0535 10.2195 46.1905C10.246 46.2204 10.1959 46.257 10.1696 46.2274V46.2273Z" fill="white"/>
<path d="M9.4119 47.7484C9.81522 47.7788 10.2152 47.6571 10.5322 47.4074C10.5636 47.3827 10.6006 47.4324 10.5693 47.4571C10.2389 47.7163 9.82239 47.8421 9.40276 47.8096C9.36276 47.8064 9.37212 47.7453 9.4119 47.7484V47.7484Z" fill="white"/>
<path d="M11.6503 45.189C11.6887 45.2567 11.7434 45.3139 11.8096 45.3553C11.8757 45.3968 11.9511 45.4214 12.0292 45.4267C12.0692 45.4293 12.0598 45.4905 12.02 45.4879C11.9338 45.4815 11.8505 45.4544 11.7774 45.4087C11.7042 45.363 11.6434 45.3002 11.6003 45.2258C11.5957 45.2192 11.5938 45.211 11.595 45.2029C11.5962 45.1949 11.6004 45.1876 11.6068 45.1826C11.6134 45.1778 11.6217 45.1757 11.6299 45.1769C11.638 45.1781 11.6454 45.1825 11.6503 45.189H11.6503Z" fill="white"/>
<path d="M44.092 45.6801C43.9628 44.2832 43.1393 42.8846 41.8184 42.3892C42.2988 43.8381 42.2479 45.4092 41.6747 46.8244C41.4516 47.3694 41.1464 47.9525 41.3215 48.5145C41.4304 48.8642 41.7157 49.1382 42.0388 49.3142C42.3619 49.4901 42.7238 49.5806 43.0813 49.6694L43.1502 49.7299C43.7631 48.4661 44.2212 47.0771 44.092 45.6801Z" fill="#F0F0F0"/>
<path d="M41.8043 42.415C42.554 43.3057 43.0022 44.4084 43.0853 45.5666C43.1076 45.8156 43.0903 46.0666 43.034 46.3103C42.9714 46.5459 42.8465 46.7605 42.6722 46.9319C42.5129 47.095 42.331 47.2434 42.2143 47.4421C42.1562 47.5447 42.1205 47.6583 42.1096 47.7756C42.0987 47.8929 42.1129 48.0111 42.1513 48.1225C42.2395 48.4026 42.4238 48.6345 42.6119 48.855C42.8208 49.0999 43.0416 49.351 43.1235 49.6694C43.1334 49.708 43.1931 49.6904 43.1832 49.6519C43.0408 49.0979 42.5146 48.769 42.2749 48.2665C42.163 48.032 42.1216 47.7626 42.2413 47.5227C42.346 47.3128 42.5335 47.1596 42.6962 46.9959C42.8687 46.8312 42.998 46.627 43.0728 46.4011C43.1414 46.1611 43.1684 45.9112 43.1527 45.6622C43.1262 45.101 43.0111 44.5474 42.8115 44.0217C42.5872 43.4205 42.2609 42.8619 41.8469 42.37C41.8213 42.3395 41.7788 42.3848 41.8043 42.415L41.8043 42.415Z" fill="white"/>
<path d="M43.0807 45.1922C43.2744 45.1519 43.4473 45.0446 43.5687 44.8894C43.6901 44.7341 43.752 44.541 43.7434 44.3446C43.743 44.3366 43.7394 44.3291 43.7335 44.3236C43.7276 44.3181 43.7198 44.3152 43.7117 44.3153C43.7037 44.3155 43.696 44.3187 43.6903 44.3244C43.6845 44.3301 43.6813 44.3377 43.6811 44.3457C43.6895 44.5286 43.6319 44.7085 43.5185 44.8528C43.4052 44.9971 43.2436 45.0965 43.0631 45.1329C43.0238 45.1408 43.0417 45.2001 43.0807 45.1922Z" fill="white"/>
<path d="M42.764 46.8598C42.4235 46.6428 42.1779 46.3063 42.0761 45.9173C42.066 45.8788 42.0064 45.8963 42.0164 45.9348C42.1231 46.3394 42.3794 46.6891 42.7342 46.9141C42.768 46.9356 42.7976 46.8811 42.764 46.8598H42.764Z" fill="white"/>
<path d="M42.5276 43.4775C42.4559 43.5087 42.3776 43.5217 42.2996 43.5153C42.2217 43.5088 42.1466 43.4831 42.0811 43.4404C42.0475 43.4184 42.018 43.4732 42.0513 43.495C42.1239 43.5418 42.2069 43.5701 42.293 43.5775C42.3791 43.5848 42.4657 43.571 42.5452 43.5371C42.5529 43.5346 42.5594 43.5292 42.5633 43.522C42.5672 43.5148 42.5683 43.5064 42.5662 43.4985C42.5638 43.4906 42.5584 43.484 42.5512 43.48C42.544 43.4761 42.5355 43.4752 42.5276 43.4775H42.5276Z" fill="white"/>
<path d="M37.6672 44.7444C37.6878 44.7586 37.7083 44.7729 37.7289 44.7876C38.0042 44.9803 38.2633 45.195 38.5037 45.4294C38.5225 45.4473 38.5414 45.4656 38.5597 45.484C39.1327 46.0549 39.594 46.7266 39.9201 47.4648C40.0497 47.7587 40.1565 48.062 40.2397 48.372C40.3546 48.8001 40.4449 49.2734 40.6883 49.6283C40.7133 49.6656 40.7405 49.7014 40.77 49.7353L43.0706 49.8088C43.0759 49.8063 43.0813 49.8044 43.0866 49.802L43.1783 49.8091C43.1751 49.7928 43.1715 49.776 43.1683 49.7597C43.1665 49.7502 43.1642 49.7408 43.1624 49.7313C43.1611 49.725 43.1597 49.7187 43.1588 49.7129C43.1584 49.7108 43.1579 49.7087 43.1574 49.7071C43.1566 49.7014 43.1552 49.6961 43.1543 49.6908C43.1342 49.5968 43.1134 49.5026 43.092 49.4085C43.092 49.408 43.092 49.408 43.0915 49.4074C42.9347 48.6886 42.6927 47.9907 42.3705 47.3285C42.3606 47.3088 42.3508 47.2887 42.3399 47.269C42.1902 46.9756 42.0167 46.6949 41.821 46.4296C41.7134 46.2847 41.5985 46.1453 41.4767 46.0119C41.1613 45.6679 40.7935 45.3754 40.3866 45.145C39.5754 44.6857 38.6255 44.4894 37.7351 44.7257C37.7123 44.7317 37.69 44.7378 37.6672 44.7444Z" fill="#F0F0F0"/>
<path d="M37.6715 44.7735C38.8098 45.0362 39.8359 45.6485 40.6041 46.5236C40.7728 46.7091 40.911 46.9198 41.0137 47.1481C41.1065 47.3736 41.1368 47.6197 41.1015 47.8609C41.0731 48.0863 41.0178 48.3137 41.0451 48.5421C41.0608 48.6588 41.1012 48.7709 41.1635 48.8711C41.2259 48.9712 41.3089 49.0571 41.407 49.1231C41.6472 49.294 41.9348 49.3689 42.2187 49.4324C42.5338 49.503 42.8623 49.5713 43.1206 49.7766C43.1519 49.8015 43.1889 49.7518 43.1577 49.7269C42.7083 49.3698 42.0889 49.422 41.5929 49.1641C41.3615 49.0438 41.1652 48.8535 41.1154 48.5903C41.0719 48.3602 41.1287 48.1256 41.1595 47.8976C41.1974 47.6628 41.1769 47.4225 41.0997 47.1974C41.0091 46.9647 40.8792 46.7491 40.7158 46.5596C40.3546 46.1274 39.9272 45.7542 39.4493 45.4539C38.9059 45.1081 38.3069 44.8572 37.6783 44.7121C37.6393 44.7031 37.6328 44.7646 37.6715 44.7735V44.7735Z" fill="white"/>
<path d="M40.3734 46.2273C40.5037 46.0794 40.5768 45.8902 40.5797 45.6936C40.5825 45.4971 40.5149 45.3059 40.389 45.1542C40.3634 45.1236 40.3143 45.1617 40.34 45.1923C40.4575 45.3333 40.5204 45.5114 40.5174 45.6945C40.5144 45.8775 40.4456 46.0535 40.3234 46.1905C40.2969 46.2204 40.3471 46.257 40.3734 46.2274V46.2273Z" fill="white"/>
<path d="M41.131 47.7484C40.7277 47.7788 40.3276 47.6571 40.0107 47.4074C39.9793 47.3827 39.9423 47.4324 39.9736 47.4571C40.304 47.7163 40.7205 47.8421 41.1401 47.8096C41.1801 47.8064 41.1707 47.7453 41.131 47.7484V47.7484Z" fill="white"/>
<path d="M38.8926 45.189C38.8542 45.2567 38.7995 45.3139 38.7334 45.3553C38.6673 45.3968 38.5918 45.4214 38.5138 45.4267C38.4738 45.4293 38.4832 45.4905 38.5229 45.4879C38.6091 45.4815 38.6924 45.4544 38.7656 45.4087C38.8387 45.363 38.8995 45.3002 38.9426 45.2258C38.9473 45.2192 38.9492 45.211 38.948 45.2029C38.9468 45.1949 38.9426 45.1876 38.9362 45.1826C38.9295 45.1778 38.9212 45.1757 38.9131 45.1769C38.9049 45.1781 38.8976 45.1825 38.8926 45.189H38.8926Z" fill="white"/>
<path d="M38.5448 19.2121C38.7117 19.2121 38.8469 19.0777 38.8469 18.9119C38.8469 18.7461 38.7117 18.6117 38.5448 18.6117C38.3779 18.6117 38.2427 18.7461 38.2427 18.9119C38.2427 19.0777 38.3779 19.2121 38.5448 19.2121Z" fill="#3F3D56"/>
<path d="M34.7616 21.2241L38.8347 18.6816C38.8715 18.6585 38.9127 18.6432 38.9556 18.6364C38.9986 18.6297 39.0425 18.6316 39.0847 18.6422C39.1269 18.6528 39.1665 18.6718 39.2011 18.698C39.2357 18.7242 39.2647 18.7571 39.2861 18.7947C39.3076 18.8323 39.3211 18.8739 39.326 18.9168C39.3308 18.9598 39.3268 19.0033 39.3143 19.0447C39.3018 19.0861 39.2809 19.1245 39.253 19.1577C39.2251 19.1909 39.1907 19.2181 39.1519 19.2377L34.8639 21.4034C34.8401 21.4154 34.8125 21.4178 34.7869 21.4102C34.7614 21.4025 34.7397 21.3854 34.7266 21.3623C34.7134 21.3392 34.7097 21.3119 34.7162 21.2862C34.7228 21.2605 34.739 21.2382 34.7616 21.2241V21.2241Z" fill="#E4E4E4"/>
<path d="M26.5902 26.6988C26.5581 26.6514 26.5414 26.5954 26.5422 26.5383C26.543 26.4812 26.5614 26.4257 26.5949 26.3793C26.6638 26.2876 26.7556 26.2153 26.8611 26.1695C27.0791 26.0592 27.3138 25.9855 27.5559 25.9513C27.7399 25.9254 27.9407 25.9171 28.0834 25.7988C28.2252 25.6814 28.3043 25.4617 28.4879 25.4434C28.6655 25.4256 28.8021 25.6188 28.9801 25.6308C29.1996 25.6455 29.3434 25.3903 29.5569 25.3379C29.6999 25.3029 29.8469 25.3647 29.981 25.4252L30.7858 25.788L31.1983 25.9739C31.3424 26.0389 31.5049 26.1263 31.5321 26.2812C31.5695 26.494 31.3314 26.6441 31.1277 26.7197C29.6734 27.2529 28.0754 27.2531 26.621 26.7202" fill="#A33D3A"/>
<path d="M27.8026 30.6192C33.6426 30.6192 38.3769 29.9472 38.3769 29.1182C38.3769 28.2893 33.6426 27.6173 27.8026 27.6173C21.9626 27.6173 17.2284 28.2893 17.2284 29.1182C17.2284 29.9472 21.9626 30.6192 27.8026 30.6192Z" fill="#3F3D56"/>
<path d="M49.2533 38.4241H42.0024C41.6687 38.4241 41.3981 38.6929 41.3981 39.0245C41.3981 39.356 41.6687 39.6248 42.0024 39.6248H49.2533C49.587 39.6248 49.8575 39.356 49.8575 39.0245C49.8575 38.6929 49.587 38.4241 49.2533 38.4241Z" fill="#3F3D56"/>
<path d="M52.7673 27.72L50.3725 39.0238L50.9962 41.9169L52.1738 47.377V49.8312C52.1739 49.8346 52.1737 49.8379 52.1731 49.8412C52.1727 49.8954 52.1627 49.9492 52.1436 50H51.197C51.1778 49.9492 51.1678 49.8954 51.1674 49.8412C51.1668 49.8379 51.1666 49.8346 51.1667 49.8312V47.4824L50.0979 42.5266L49.8817 41.526L49.4634 39.5868L49.3426 39.0251V39.0244L49.4621 38.4614L49.5541 38.0271L51.7817 27.5146C51.7953 27.4502 51.8214 27.3891 51.8587 27.3348C51.896 27.2805 51.9437 27.2341 51.9991 27.1981C52.0544 27.1621 52.1164 27.1373 52.1814 27.1252C52.2465 27.113 52.3133 27.1137 52.378 27.1272C52.4428 27.1407 52.5042 27.1667 52.5588 27.2038C52.6134 27.2409 52.6602 27.2884 52.6963 27.3434C52.7325 27.3985 52.7573 27.4601 52.7695 27.5247C52.7817 27.5893 52.7809 27.6557 52.7673 27.72L52.7673 27.72Z" fill="#3F3D56"/>
<path d="M42.506 39.0244V49.8312C42.5061 49.8345 42.5058 49.8379 42.5053 49.8412C42.5049 49.8954 42.4949 49.9492 42.4757 50H41.5291C41.5099 49.9492 41.4999 49.8954 41.4995 49.8412C41.499 49.8379 41.4988 49.8345 41.4989 49.8312V39.0244C41.4989 38.8917 41.5519 38.7645 41.6463 38.6706C41.7408 38.5768 41.8689 38.5241 42.0024 38.5241C42.136 38.5241 42.264 38.5768 42.3585 38.6706C42.4529 38.7645 42.506 38.8917 42.506 39.0244Z" fill="#3F3D56"/>
<path d="M43.2109 37.2233H48.0448C48.5256 37.2233 48.9866 37.4131 49.3266 37.7509C49.6666 38.0886 49.8575 38.5468 49.8575 39.0245H41.3981C41.3981 38.5468 41.5891 38.0886 41.9291 37.7509C42.269 37.4131 42.7301 37.2233 43.2109 37.2233Z" fill="#3F3D56"/>
<path d="M50.4618 42.5266H42.0024C41.8688 42.5266 41.7408 42.4739 41.6463 42.3801C41.5519 42.2863 41.4988 42.159 41.4988 42.0263C41.4988 41.8936 41.5519 41.7664 41.6463 41.6725C41.7408 41.5787 41.8688 41.526 42.0024 41.526H50.4618C50.5953 41.526 50.7234 41.5787 50.8178 41.6725C50.9123 41.7664 50.9653 41.8936 50.9653 42.0263C50.9653 42.159 50.9123 42.2863 50.8178 42.3801C50.7234 42.4739 50.5953 42.5266 50.4618 42.5266Z" fill="#3F3D56"/>
<path d="M11.1127 39.643H19.6454C19.9791 39.643 20.2496 39.3742 20.2496 39.0426V38.8607C20.2496 38.5291 19.9791 38.2603 19.6454 38.2603H11.1127C10.779 38.2603 10.5085 38.5291 10.5085 38.8607V39.0426C10.5085 39.3742 10.779 39.643 11.1127 39.643Z" fill="#3F3D56"/>
<path d="M11.0249 38.9598L10.8704 39.5922L10.3038 41.9083L10.0594 42.9089L8.92475 47.5505V49.5644C8.92505 49.663 8.89559 49.7594 8.84018 49.8412C8.79661 49.9074 8.73736 49.9619 8.66764 50H8.17483C8.10511 49.9619 8.04586 49.9074 8.00229 49.8412C7.94687 49.7595 7.9174 49.663 7.91768 49.5644V47.4304L9.17855 42.2739L9.99228 38.9438L7.23289 25.919C7.21924 25.8547 7.21847 25.7883 7.23063 25.7238C7.24279 25.6592 7.26764 25.5976 7.30376 25.5426C7.33989 25.4875 7.38657 25.4401 7.44115 25.403C7.49573 25.3659 7.55713 25.3399 7.62185 25.3264C7.68656 25.3129 7.75332 25.3122 7.81831 25.3244C7.88329 25.3365 7.94523 25.3613 8.00057 25.3972C8.05592 25.4332 8.1036 25.4796 8.14087 25.5339C8.17814 25.5882 8.20429 25.6492 8.2178 25.7135L10.7684 37.7497L10.8859 38.3047L11.0228 38.9518L11.0249 38.9598Z" fill="#3F3D56"/>
<path d="M20.0576 38.9517V49.5644C20.0579 49.663 20.0284 49.7594 19.973 49.8412C19.9294 49.9074 19.8702 49.9619 19.8005 50H19.307C19.2376 49.9617 19.1786 49.9072 19.1351 49.8412C19.0797 49.7594 19.0502 49.663 19.0505 49.5644V38.9517C19.0505 38.819 19.1036 38.6918 19.198 38.598C19.2925 38.5041 19.4205 38.4514 19.5541 38.4514C19.6876 38.4514 19.8157 38.5041 19.9101 38.598C20.0046 38.6918 20.0576 38.819 20.0576 38.9517Z" fill="#3F3D56"/>
<path d="M20.2496 38.9517H10.5085V38.6788C10.5085 38.4422 10.5554 38.208 10.6465 37.9895C10.7376 37.771 10.8711 37.5724 11.0394 37.4052C11.2078 37.2379 11.4076 37.1052 11.6275 37.0147C11.8475 36.9242 12.0832 36.8776 12.3212 36.8776H18.4369C18.9177 36.8776 19.3787 37.0674 19.7187 37.4052C20.0587 37.7429 20.2496 38.2011 20.2496 38.6788V38.9517H20.2496Z" fill="#3F3D56"/>
<path d="M19.5538 42.9087H9.81268C9.67913 42.9087 9.55106 42.856 9.45663 42.7622C9.3622 42.6683 9.30914 42.5411 9.30914 42.4084C9.30914 42.2757 9.3622 42.1484 9.45663 42.0546C9.55106 41.9608 9.67913 41.9081 9.81268 41.9081H19.5538C19.6874 41.9081 19.8154 41.9608 19.9099 42.0546C20.0043 42.1484 20.0574 42.2757 20.0574 42.4084C20.0574 42.5411 20.0043 42.6683 19.9099 42.7622C19.8154 42.856 19.6874 42.9087 19.5538 42.9087Z" fill="#3F3D56"/>
<path d="M32.0728 47.273L31.0145 46.7701L32.4682 42.3748L34.0302 43.117L32.0728 47.273Z" fill="#9E616A"/>
<path d="M39.245 46.8749L38.107 47.1539L36.4582 42.8281L38.1379 42.4163L39.245 46.8749Z" fill="#9E616A"/>
<path d="M34.8833 28.1687C35.0342 28.4123 35.275 28.5876 35.5543 28.6572C35.8335 28.7268 36.1291 28.6852 36.3779 28.5413C36.4279 28.5112 36.4754 28.4771 36.5197 28.4392L39.8656 30.347L39.7203 28.3886L36.5652 26.8771C36.3936 26.7058 36.1695 26.5959 35.9282 26.5646C35.6869 26.5334 35.442 26.5826 35.2319 26.7046C35.1109 26.7767 35.0057 26.8722 34.9224 26.9854C34.8392 27.0986 34.7795 27.2272 34.747 27.3637C34.7146 27.5001 34.7099 27.6416 34.7333 27.7799C34.7567 27.9181 34.8077 28.0504 34.8833 28.1687Z" fill="#9E616A"/>
<path d="M38.4271 29.6287L39.0186 29.9868L41.6748 31.5962C41.8493 31.7047 42.0436 31.7779 42.2466 31.8117C42.4495 31.8456 42.6572 31.8393 42.8578 31.7933C43.0583 31.7473 43.2478 31.6625 43.4153 31.5437C43.5828 31.4249 43.7252 31.2745 43.8341 31.101C44.0308 30.7791 44.1004 30.3961 44.0295 30.0261L42.8489 24.1656C42.8053 23.9356 42.7122 23.7176 42.5759 23.5266C42.4397 23.3355 42.2636 23.176 42.0596 23.0588C41.8556 22.9417 41.6286 22.8696 41.394 22.8477C41.1595 22.8257 40.9229 22.8544 40.7005 22.9316C40.3266 23.0621 40.0168 23.3293 39.8342 23.6787C39.6516 24.0281 39.6097 24.4335 39.7173 24.8125L40.9518 28.9716L39.0595 28.095L38.4271 29.6287Z" fill="#E6E6E6"/>
<path d="M37.0287 45.6626L35.2077 42.0338L35.2079 42.0255L35.3877 35.3695C35.39 35.3104 35.3948 35.2509 35.4021 35.1924C35.4338 34.9255 35.5187 34.6676 35.6518 34.4336C35.785 34.1997 35.9636 33.9944 36.1774 33.8298C36.3821 33.6706 36.6167 33.5536 36.8675 33.4854C37.1182 33.4173 37.3801 33.3994 37.6379 33.4329L42.8451 34.1025L43.0257 33.3688L43.0593 33.3566L48.0487 31.5398L48.0774 31.5863C48.7309 32.6427 49.1877 34.7529 49.3121 35.3745L49.3139 35.3835C49.3165 35.3966 49.3181 35.4045 49.3186 35.4068C49.5755 36.4676 48.5142 38.2247 47.4569 38.4888C45.2299 39.0528 43.2383 38.6128 40.9321 38.1033C40.1051 37.9206 39.2505 37.7317 38.3091 37.5684L38.337 38.1189C38.36 38.5427 38.4486 38.9603 38.5997 39.3572C38.7675 39.8457 38.9001 40.2315 38.6198 41.0359L38.4842 41.4251C38.5545 41.6183 38.5787 41.8251 38.5549 42.0291C38.5311 42.2332 38.4599 42.429 38.3469 42.6011L38.3196 42.6425L39.5205 45.662L37.0287 45.6626Z" fill="#2F2E41"/>
<path d="M34.0367 44.0578L31.8651 43.8573L32.6345 41.4126C32.7932 39.8163 33.1933 38.253 33.8211 36.7752L34.8705 34.3042C34.8729 34.2492 34.8776 34.1939 34.8843 34.1396C34.9161 33.8728 35.001 33.6148 35.1341 33.3809C35.2672 33.147 35.4459 32.9417 35.6596 32.7771C35.8644 32.618 36.099 32.501 36.3497 32.4328C36.6005 32.3647 36.8624 32.3468 37.1201 32.3803L42.3197 33.0489L42.5461 31.1603L47.5368 30.4967L47.5597 30.5336C48.432 31.9439 48.9858 33.0479 49.3025 34.0081C49.3184 34.057 49.3326 34.107 49.3446 34.1567C49.6032 35.2246 48.9577 36.3073 47.9056 36.5702C45.2244 37.2494 42.0003 37.2305 37.7612 36.5105L35.7097 41.3616C35.5136 41.8249 35.2708 42.2673 34.9851 42.6821L34.0367 44.0578Z" fill="#2F2E41"/>
<path d="M41.6115 19.5682C43.0008 19.5682 44.127 18.4242 44.127 17.0131C44.127 15.602 43.0008 14.458 41.6115 14.458C40.2222 14.458 39.096 15.602 39.096 17.0131C39.096 18.4242 40.2222 19.5682 41.6115 19.5682Z" fill="#9E616A"/>
<path d="M42.3378 33.138L41.9769 31.8533L41.8882 31.2195L41.3694 31.2367L40.3513 28.9017L39.9558 28.286C39.8752 28.2016 39.8021 28.1205 39.7366 28.0426C39.3246 27.5798 38.9942 27.0512 38.7594 26.4791C38.5949 26.0681 38.4983 25.6333 38.4734 25.1916C38.3996 23.8869 38.9531 22.5066 40.1656 20.972C40.1457 20.9177 40.1325 20.8612 40.1261 20.8037C40.1044 20.6173 40.1577 20.4299 40.2744 20.2823C40.391 20.1347 40.5616 20.0389 40.749 20.0156L41.9185 19.8852C42.0095 19.8749 42.1016 19.8828 42.1894 19.9082C42.2773 19.9337 42.3592 19.9762 42.4303 20.0334C42.5046 20.0926 42.5663 20.1659 42.6118 20.2489C42.6573 20.332 42.6857 20.4233 42.6954 20.5174C42.7111 20.663 42.6822 20.8099 42.6127 20.939C43.2088 21.0142 43.7704 21.2586 44.2302 21.6431C44.69 22.0275 45.0284 22.5355 45.2049 23.1062C45.9047 24.4043 46.4624 25.7731 46.8686 27.1892C46.9487 27.4666 46.913 27.7524 46.8785 28.0288C46.8467 28.2841 46.8138 28.5481 46.8691 28.8112C46.9255 29.0788 47.061 29.3473 47.2044 29.6315C47.3688 29.957 47.5387 30.2936 47.5846 30.6367L47.5878 30.6608L42.3378 33.138Z" fill="#E4E4E4"/>
<path opacity="0.2" d="M38.7905 26.4665C39.0242 27.0353 39.3528 27.5609 39.7623 28.0212C39.8325 28.1044 39.9066 28.1862 39.9841 28.2681L40.382 28.8885C41.8489 27.796 43.0373 23.4946 43.0373 23.4946L41.3823 23.1747L38.7905 26.4665Z" fill="black"/>
<path d="M37.7885 19.8069C37.9334 20.0543 37.9755 20.3481 37.9057 20.6258C37.836 20.9035 37.66 21.1431 37.4151 21.2938C37.3648 21.3237 37.3121 21.3494 37.2576 21.3706L37.3748 25.202L35.7049 24.1575L35.8496 20.6793C35.7786 20.4478 35.7867 20.1995 35.8726 19.9731C35.9585 19.7467 36.1175 19.5549 36.3246 19.4276C36.4453 19.3551 36.5794 19.3073 36.7189 19.2872C36.8585 19.267 37.0007 19.2748 37.1372 19.3102C37.2736 19.3455 37.4016 19.4077 37.5134 19.493C37.6253 19.5784 37.7188 19.6851 37.7885 19.8069Z" fill="#9E616A"/>
<path d="M37.5216 23.7557L35.6852 24.0152L35.7641 27.7936C35.7687 28.0632 35.8426 28.3271 35.9787 28.5603C36.1149 28.7935 36.3088 28.9882 36.542 29.1259C36.8269 29.2925 37.1586 29.3625 37.4871 29.3255C37.8156 29.2884 38.123 29.1463 38.3631 28.9205L42.6986 24.7771C43.0037 24.4896 43.1862 24.0969 43.2087 23.6797C43.2313 23.2625 43.0921 22.8526 42.8197 22.5343C42.685 22.3759 42.5196 22.2459 42.3333 22.1521C42.147 22.0584 41.9437 22.0028 41.7354 21.9886C41.527 21.9744 41.318 22.002 41.1206 22.0696C40.9232 22.1373 40.7414 22.2436 40.5862 22.3824C40.5434 22.4204 40.5026 22.4608 40.4641 22.5032L37.6014 25.7754L37.5216 23.7557Z" fill="#E6E6E6"/>
<path d="M22.1626 48.4015L23.466 48.4015L24.0861 43.4061L22.1624 43.4061L22.1626 48.4015Z" fill="#FFB6B6"/>
<path d="M14.7745 19.6424C16.2112 19.6424 17.376 18.4851 17.376 17.0575C17.376 15.6299 16.2112 14.4727 14.7745 14.4727C13.3377 14.4727 12.173 15.6299 12.173 17.0575C12.173 18.4851 13.3377 19.6424 14.7745 19.6424Z" fill="#FFB6B6"/>
<path d="M23.8914 46.8627H22.0456L21.5751 46.236L21.4477 45.6455L21.3381 45.5401C21.1894 45.3982 21.0932 45.2107 21.0652 45.0077C21.0372 44.8048 21.079 44.5984 21.1838 44.422L19.8461 38.2207C19.4957 38.1901 15.5446 37.8391 12.798 37.3561C12.0951 37.2326 11.5463 36.8931 11.1669 36.3471C10.2345 35.0056 10.6339 32.8349 10.638 32.8131L10.6426 32.7889L10.6673 32.7861L17.0826 32.0707L17.0913 32.0748C17.3042 32.1749 22.3147 34.5384 23.1335 35.352C23.5033 35.7193 24.3282 37.9021 24.5128 40.2226C24.5459 40.6383 24.4269 41.0616 24.3117 41.4711C24.204 41.8542 24.0926 42.2503 24.1146 42.6248C24.1486 43.2026 24.1808 43.8087 24.2103 44.4262C24.215 44.5246 24.2896 44.6265 24.3618 44.725C24.4372 44.8279 24.5084 44.925 24.5129 45.0267C24.5568 46.0129 23.908 46.8417 23.9015 46.85L23.8914 46.8627Z" fill="#2F2E41"/>
<path d="M24.3117 23.9423C24.1719 23.9043 24.0255 23.8972 23.8827 23.9216C23.7399 23.9459 23.6042 24.0011 23.4852 24.0832C23.3662 24.1653 23.2667 24.2723 23.1938 24.3967C23.1209 24.5211 23.0764 24.6599 23.0633 24.8033L20.9018 25.4745L20.992 26.8792L24.0311 25.8886C24.2749 25.8945 24.5125 25.8112 24.6987 25.6547C24.8849 25.4982 25.0069 25.2792 25.0414 25.0393C25.076 24.7994 25.0208 24.5552 24.8863 24.353C24.7518 24.1508 24.5474 24.0047 24.3117 23.9423V23.9423Z" fill="#FFB6B6"/>
<path d="M22.9014 26.2667L21.2859 26.8742L21.2446 26.9538C21.1455 27.1447 20.9742 27.2887 20.7683 27.3541C20.5624 27.4195 20.3388 27.401 20.1467 27.3026L16.5155 28.6681C16.5155 28.6681 14.894 27.0558 13.7394 25.6168L14.1329 23.2121C14.224 22.6542 14.4177 22.1177 14.7043 21.6294C17.072 22.1453 18.4312 25.4339 18.4312 25.4339L22.6984 24.6249L22.9014 26.2667Z" fill="#A33D3A"/>
<path d="M14.4048 19.5042C13.7535 19.679 13.0355 19.4466 12.5272 19.0059C12.0189 18.5651 11.701 17.9405 11.5178 17.2954C11.3836 16.823 11.32 16.2985 11.5317 15.855C11.7435 15.4114 12.3133 15.1121 12.7529 15.3362C12.4817 15.0223 12.6172 14.503 12.9339 14.2344C13.2507 13.9659 13.6856 13.8889 14.0998 13.8468C14.701 13.7857 15.322 13.7789 15.894 13.9724C16.4661 14.1659 16.9858 14.589 17.1649 15.1624C17.3477 15.247 17.5537 15.269 17.7504 15.2248C17.9472 15.1807 18.1236 15.073 18.2522 14.9185C18.2853 15.0959 18.2587 15.2792 18.1764 15.44C18.0942 15.6009 17.9609 15.7303 17.7971 15.8083L18.6736 15.5259C18.8244 15.843 18.5602 16.2353 18.2225 16.3368C17.8847 16.4384 17.5201 16.3274 17.1996 16.1807C16.879 16.0341 16.5684 15.8486 16.2203 15.7914C15.8721 15.7342 15.4632 15.8454 15.3021 16.1574C15.2178 16.3208 15.2134 16.5121 15.1644 16.6892C15.1154 16.8663 14.9914 17.0499 14.8071 17.0644C14.6907 17.0735 14.5767 17.0119 14.4607 17.0245C14.3167 17.0401 14.2066 17.1697 14.1683 17.3084C14.1394 17.4497 14.139 17.5954 14.1672 17.7369L14.3899 19.4278" fill="#2F2E41"/>
<path d="M11.1818 36.656C11.1813 36.656 11.1808 36.6559 11.1804 36.6558L11.1598 36.6523L11.1538 36.6324C11.079 36.3825 10.9839 36.1266 10.8918 35.8792C10.7563 35.5365 10.6418 35.1859 10.5491 34.8294C10.4761 34.4886 10.4255 34.1434 10.3976 33.7961C10.3719 33.5439 10.3454 33.2831 10.3002 33.0264C10.2802 32.9124 10.3561 32.8045 10.4296 32.7001C10.4977 32.6033 10.5621 32.5119 10.5486 32.4254C10.5348 32.337 10.4361 32.2398 10.3406 32.1459C10.236 32.0429 10.1278 31.9365 10.1125 31.8244C9.90393 30.2954 9.80687 28.7535 9.82203 27.2106C9.84359 25.0759 9.94068 23.6209 10.1106 22.8858C10.5675 20.9095 12.6786 20.5488 13.009 20.5043C13.0442 20.4111 13.0983 20.3262 13.168 20.2547C13.2376 20.1833 13.3213 20.1268 13.4139 20.0889C13.5065 20.0509 13.6059 20.0324 13.706 20.0343C13.8061 20.0361 13.9048 20.0585 13.9958 20.0999L15.4957 20.7821C15.8 20.921 16.0722 21.1206 16.2956 21.3684C16.5189 21.6163 16.6886 21.9071 16.794 22.2229L17.0169 22.8978L17.1285 27.4286L16.51 30.6192L17.7185 32.4203C11.2776 35.9338 11.2026 36.656 11.1818 36.656Z" fill="#A33D3A"/>
<path d="M21.4612 47.8982L21.885 47.8982L23.5395 47.2296L24.4263 47.8981H24.4264C24.9276 47.8981 25.4082 48.0959 25.7625 48.448C26.1169 48.8001 26.316 49.2776 26.316 49.7755V49.8366L21.4613 49.8367L21.4612 47.8982Z" fill="#2F2E41"/>
<path d="M24.8529 27.1755C24.7279 27.1026 24.5884 27.0578 24.4442 27.0443C24.3 27.0308 24.1545 27.0489 24.018 27.0973C23.8816 27.1457 23.7575 27.2232 23.6544 27.3244C23.5514 27.4256 23.472 27.5481 23.4217 27.6831L21.1588 27.7708L20.8539 28.8181L24.071 28.9817C24.3048 29.0506 24.556 29.0318 24.7769 28.929C24.9977 28.8261 25.173 28.6463 25.2693 28.4237C25.3657 28.201 25.3766 27.951 25.2998 27.721C25.2231 27.4909 25.064 27.2968 24.8529 27.1755Z" fill="#FFB6B6"/>
<path d="M22.994 29.0946L20.6695 29.0658L20.3753 29.0619L15.646 29.0027C15.646 29.0027 14.3618 27.7853 13.2435 26.5319L13.4002 25.4055C13.5531 24.3 14.105 23.2873 14.9533 22.556C16.5549 23.6193 17.4837 25.7241 17.4837 25.7241L19.0411 26.4166C20.1371 26.4653 21.2051 26.776 22.1544 27.3225L22.6666 27.6173L22.994 29.0946Z" fill="#A33D3A"/>
<path d="M40.0754 49.0057L39.302 49.1953L38.9837 48.5036L38.8104 49.3159L36.7591 49.8189C36.6607 49.843 36.5572 49.8353 36.4636 49.7968C36.3701 49.7583 36.2913 49.6911 36.2389 49.605C36.1865 49.5189 36.1631 49.4184 36.1722 49.3182C36.1813 49.218 36.2225 49.1233 36.2896 49.0479L37.6485 47.5221L37.4663 46.7886L39.2147 46.4683L40.0754 49.0057Z" fill="#2F2E41"/>
<path d="M31.8818 49.2428L31.1442 48.9437L31.2968 48.1984L30.6754 48.7535L28.7192 47.9602C28.6254 47.9222 28.5463 47.8554 28.4935 47.7695C28.4406 47.6837 28.4168 47.5833 28.4254 47.483C28.4341 47.3828 28.4747 47.2879 28.5415 47.2122C28.6083 47.1365 28.6976 47.084 28.7965 47.0624L30.799 46.624L31.0864 45.9245L32.6895 46.6883L31.8818 49.2428Z" fill="#2F2E41"/>
<path d="M29.3133 28.8514H28.709C28.0593 28.8507 27.4364 28.5939 26.977 28.1374C26.5176 27.681 26.2592 27.0621 26.2585 26.4165V26.3832H31.7638V26.4165C31.7631 27.0621 31.5047 27.681 31.0453 28.1374C30.5858 28.5939 29.963 28.8507 29.3133 28.8514Z" fill="#E4E4E4"/>
<path d="M28.709 25.516C28.709 25.6818 28.4069 25.8162 28.4069 25.8162C28.4069 25.8162 28.1048 25.6818 28.1048 25.516C28.1048 25.3502 28.4069 25.2158 28.4069 25.2158C28.4069 25.2158 28.709 25.3502 28.709 25.516Z" fill="#3F3D56"/>
<path d="M30.5217 25.516C30.5217 25.6818 30.2196 25.8162 30.2196 25.8162C30.2196 25.8162 29.9175 25.6818 29.9175 25.516C29.9175 25.3502 30.2196 25.2158 30.2196 25.2158C30.2196 25.2158 30.5217 25.3502 30.5217 25.516Z" fill="#3F3D56"/>
<path d="M29.3133 26.1164C29.3133 26.2822 29.0112 26.4166 29.0112 26.4166C29.0112 26.4166 28.709 26.2822 28.709 26.1164C28.709 25.9506 29.0112 25.8162 29.0112 25.8162C29.0112 25.8162 29.3133 25.9506 29.3133 26.1164Z" fill="#3F3D56"/>
<path d="M27.1984 24.8822C27.3653 24.8822 27.5005 24.7478 27.5005 24.582C27.5005 24.4163 27.3653 24.2819 27.1984 24.2819C27.0316 24.2819 26.8963 24.4163 26.8963 24.582C26.8963 24.7478 27.0316 24.8822 27.1984 24.8822Z" fill="#3F3D56"/>
<path d="M22.8045 23.9369L27.5695 24.5908C27.6126 24.5967 27.654 24.6113 27.6913 24.6335C27.7286 24.6558 27.761 24.6854 27.7865 24.7204C27.8119 24.7555 27.83 24.7953 27.8396 24.8375C27.8491 24.8796 27.85 24.9233 27.8421 24.9658C27.8342 25.0084 27.8177 25.0488 27.7936 25.0848C27.7695 25.1209 27.7383 25.1516 27.7019 25.1753C27.6655 25.199 27.6247 25.2152 27.5818 25.2227C27.539 25.2303 27.4951 25.2292 27.4527 25.2194L22.7669 24.1396C22.7409 24.1336 22.7182 24.1178 22.7035 24.0956C22.6889 24.0734 22.6834 24.0465 22.6882 24.0204C22.6931 23.9943 22.7079 23.971 22.7295 23.9555C22.7512 23.94 22.7781 23.9333 22.8045 23.9369Z" fill="#E4E4E4"/>
<path d="M28.5948 9.01984V0H27.9906V9.01984C27.165 9.09469 26.3974 9.47344 25.8384 10.0817C25.2794 10.6901 24.9695 11.484 24.9694 12.3077V13.2083H27.0842C27.0842 13.5267 27.2115 13.8321 27.4382 14.0573C27.6648 14.2825 27.9722 14.409 28.2927 14.409C28.6132 14.409 28.9206 14.2825 29.1472 14.0573C29.3738 13.8321 29.5012 13.5267 29.5012 13.2083H31.616V12.3077C31.6159 11.484 31.3059 10.6901 30.747 10.0817C30.188 9.47344 29.4204 9.09469 28.5948 9.01984Z" fill="#F0F0F0"/>
<path d="M36.3744 6.76488V0H35.9212V6.76488C35.3021 6.82102 34.7263 7.10508 34.3071 7.56131C33.8879 8.01754 33.6554 8.61299 33.6553 9.23078V9.9062H35.2415C35.2415 10.145 35.337 10.3741 35.5069 10.543C35.6769 10.7119 35.9075 10.8068 36.1478 10.8068C36.3882 10.8068 36.6188 10.7119 36.7887 10.543C36.9587 10.3741 37.0542 10.145 37.0542 9.9062H38.6403V9.23078C38.6403 8.61299 38.4078 8.01754 37.9886 7.56131C37.5693 7.10508 36.9936 6.82102 36.3744 6.76488Z" fill="#F0F0F0"/>
<path d="M21.0669 6.76488V0H20.6138V6.76488C19.9946 6.82102 19.4188 7.10508 18.9996 7.56131C18.5804 8.01754 18.3479 8.61299 18.3478 9.23078V9.9062H19.934C19.934 10.145 20.0295 10.3741 20.1994 10.543C20.3694 10.7119 20.6 10.8068 20.8403 10.8068C21.0807 10.8068 21.3113 10.7119 21.4812 10.543C21.6512 10.3741 21.7467 10.145 21.7467 9.9062H23.3328V9.23078C23.3328 8.61299 23.1003 8.01754 22.6811 7.56131C22.2618 7.10508 21.6861 6.82102 21.0669 6.76488Z" fill="#F0F0F0"/>
<path d="M48.3427 15.9049C47.9151 15.4095 47.7118 14.7522 47.37 14.1896C47.0282 13.627 46.4334 13.1235 45.805 13.2544C45.3718 13.3447 45.037 13.7245 44.8675 14.1479C44.6981 14.5713 44.6663 15.0383 44.6366 15.4958C44.6471 14.5556 44.0237 13.6443 43.165 13.3443C42.3064 13.0443 41.2788 13.3789 40.7392 14.1342C40.5037 13.9174 40.1964 13.7939 39.8754 13.7872C39.5544 13.7805 39.2422 13.891 38.9977 14.0979C38.5151 14.5265 38.4083 15.3422 38.7633 15.8889C39.1182 16.4356 39.8869 16.6392 40.4509 16.336L40.6503 16.5183C40.5381 16.9084 40.7558 17.3691 41.1217 17.516C41.4184 17.6351 41.8373 17.6152 41.9483 17.9246C42.0259 18.1408 41.8809 18.3715 41.7266 18.5377C41.5724 18.7038 41.3892 18.8753 41.3707 19.1052C41.3427 19.452 41.7034 19.695 42.0314 19.7682C42.8221 19.9446 43.6994 19.5808 44.1552 18.8875C44.1639 18.8741 44.1735 18.8607 44.1838 18.8473C44.4395 18.5224 44.6258 18.1491 44.7314 17.7503C44.837 17.3514 44.8597 16.9354 44.798 16.5275C44.7723 16.3673 44.7982 16.2481 44.9094 16.2101C45.39 16.0461 46.7366 16.3904 47.1441 16.7015C47.5516 17.0127 47.878 17.4245 48.2705 17.7557C48.6631 18.0869 49.1633 18.3424 49.6617 18.2522C50.0609 18.18 50.4005 17.892 50.6289 17.5447C50.8573 17.1974 50.9888 16.7925 51.1065 16.3902C50.2238 16.8968 49.0157 16.6847 48.3427 15.9049Z" fill="#2F2E41"/>
</svg>
