<svg width="300" height="200" viewBox="0 0 300 200" fill="none" xmlns="http://www.w3.org/2000/svg">
<g clip-path="url(#clip0_1_1477)">
<path d="M107.61 114.74C117.891 96.6542 137.502 82.7675 158.263 84.1053C142.949 100.758 134.02 122.29 133.054 144.893C132.713 153.611 133.242 163.343 127.453 169.871C123.851 173.933 118.346 175.901 112.933 176.313C107.52 176.726 102.108 175.748 96.7669 174.774L95.4713 175.172C94.9781 154.374 97.329 132.825 107.61 114.74Z" fill="#F0F0F0"/>
<path d="M158.294 84.5408C142.942 91.9312 129.851 104.274 121.816 119.327C120.078 122.581 118.599 126.034 117.954 129.684C117.308 133.337 117.759 136.813 119.007 140.282C120.147 143.453 121.681 146.564 122.03 149.957C122.399 153.534 121.083 156.878 118.714 159.532C115.816 162.779 111.924 164.792 108.049 166.627C103.747 168.665 99.2465 170.714 96.1994 174.517C95.8302 174.978 95.1367 174.379 95.5053 173.918C100.807 167.301 109.881 166.057 116.174 160.726C119.11 158.238 121.315 154.851 121.176 150.882C121.054 147.411 119.475 144.201 118.293 141C117.051 137.639 116.432 134.26 116.877 130.676C117.333 127.011 118.68 123.493 120.327 120.209C124.04 112.801 129.122 106.001 134.943 100.122C141.633 93.3644 149.43 87.8013 157.997 83.6731C158.527 83.4178 158.82 84.2871 158.294 84.5408Z" fill="white"/>
<path d="M124.169 114.296C121.816 112.575 120.151 110.074 119.471 107.239C118.792 104.403 119.142 101.419 120.46 98.8183C120.729 98.293 121.558 98.6855 121.289 99.2115C120.057 101.631 119.731 104.411 120.369 107.05C121.007 109.689 122.568 112.013 124.769 113.602C125.246 113.948 124.645 114.64 124.169 114.296Z" fill="white"/>
<path d="M118.217 138.75C124.114 137.888 129.47 134.835 133.216 130.2C133.587 129.741 134.281 130.34 133.91 130.799C130.003 135.616 124.423 138.781 118.284 139.664C117.699 139.748 117.635 138.833 118.217 138.75V138.75Z" fill="white"/>
<path d="M142.086 94.4927C142.858 95.3483 143.83 95.9988 144.916 96.3857C146.001 96.7727 147.166 96.884 148.305 96.7097C148.889 96.6185 148.952 97.5335 148.372 97.6241C147.113 97.8108 145.827 97.6863 144.626 97.2615C143.426 96.8366 142.348 96.1243 141.487 95.1867C141.399 95.1052 141.344 94.9929 141.336 94.8728C141.327 94.7527 141.364 94.6338 141.44 94.5401C141.519 94.4486 141.632 94.3923 141.753 94.3834C141.874 94.3745 141.994 94.4138 142.086 94.4927Z" fill="white"/>
<path d="M199.569 141.158C199.206 141.226 198.843 141.293 198.477 141.367C193.602 142.297 188.811 143.622 184.151 145.327C183.789 145.454 183.423 145.587 183.065 145.723C171.882 149.952 161.58 156.221 152.685 164.211C149.148 167.394 145.859 170.841 142.845 174.523C138.683 179.607 134.576 185.452 129.137 188.767C128.574 189.119 127.989 189.436 127.386 189.716L96.057 176.721C96.0006 176.656 95.9409 176.598 95.8842 176.532L94.6096 176.071C94.7518 175.87 94.9036 175.665 95.0457 175.464C95.1277 175.347 95.2167 175.233 95.2987 175.117C95.3555 175.04 95.4128 174.963 95.4597 174.89C95.4785 174.865 95.4977 174.839 95.5136 174.82C95.5605 174.748 95.6118 174.685 95.6557 174.62C96.5009 173.471 97.3556 172.326 98.2199 171.184C98.2228 171.177 98.2228 171.177 98.2328 171.173C104.84 162.495 112.23 154.292 120.63 147.472C120.883 147.267 121.138 147.055 121.405 146.855C125.209 143.802 129.255 141.065 133.505 138.671C135.836 137.367 138.231 136.183 140.682 135.122C147.02 132.392 153.747 130.676 160.618 130.037C174.316 128.765 188.268 131.888 198.773 140.493C199.042 140.713 199.304 140.931 199.569 141.158Z" fill="#F0F0F0"/>
<path d="M199.334 141.527C182.627 138.185 164.744 140.159 149.264 147.339C145.918 148.892 142.658 150.758 139.945 153.284C137.231 155.812 135.498 158.859 134.406 162.379C133.407 165.598 132.758 169.006 130.994 171.925C129.135 175.003 126.071 176.881 122.582 177.574C118.313 178.422 113.994 177.685 109.795 176.818C105.133 175.855 100.306 174.781 95.5829 175.983C95.0106 176.129 94.818 175.232 95.3894 175.087C103.607 172.995 111.601 177.465 119.835 176.997C123.677 176.779 127.477 175.402 129.755 172.149C131.748 169.304 132.42 165.791 133.403 162.523C134.435 159.092 135.976 156.021 138.488 153.428C141.059 150.776 144.253 148.778 147.545 147.147C154.969 143.468 163.121 141.098 171.309 139.909C180.719 138.541 190.294 138.794 199.619 140.655C200.196 140.771 199.907 141.642 199.334 141.527V141.527Z" fill="white"/>
<path d="M154.173 144.74C153.33 141.949 153.506 138.949 154.671 136.276C155.835 133.603 157.912 131.432 160.53 130.148C161.061 129.891 161.486 130.703 160.955 130.961C158.515 132.152 156.58 134.175 155.501 136.666C154.422 139.157 154.269 141.952 155.069 144.546C155.242 145.11 154.345 145.301 154.173 144.74Z" fill="white"/>
<path d="M134.697 160.681C139.924 163.543 146.039 164.33 151.821 162.885C152.394 162.742 152.586 163.638 152.014 163.781C145.995 165.274 139.633 164.442 134.2 161.451C133.682 161.166 134.182 160.397 134.697 160.681Z" fill="white"/>
<path d="M180.401 139.715C180.503 140.863 180.887 141.968 181.521 142.93C182.155 143.892 183.017 144.682 184.032 145.229C184.553 145.508 184.052 146.276 183.535 146C182.417 145.39 181.465 144.517 180.763 143.455C180.06 142.393 179.628 141.176 179.505 139.908C179.484 139.79 179.508 139.668 179.573 139.566C179.638 139.465 179.74 139.393 179.857 139.364C179.975 139.339 180.099 139.361 180.201 139.427C180.303 139.493 180.375 139.596 180.401 139.715Z" fill="white"/>
<path d="M139.889 162.597C135.502 141.383 130.017 134.31 130.017 134.31L127.922 132.685L125.403 130.728L125.415 130.476L124.817 130.273L124.677 130.164L124.447 129.987L124.41 130.027L124.332 130.108L112.93 126.232L98.4648 121.319L91.7666 112.613C90.6757 111.195 89.2713 110.049 87.6633 109.264C86.0554 108.48 84.2876 108.079 82.4987 108.092L61.1067 108.25C58.2143 108.272 55.4345 109.374 53.3138 111.342L39.2532 124.384L17.3442 134.847L17.3072 134.81L17.0771 134.975L13.692 136.593L13.8316 137.32L11.7364 138.832C11.7364 138.832 6.252 145.414 1.86442 165.154C0.748274 170.176 0.198865 180.951 0.000557285 194.228C-0.00940368 194.899 0.114257 195.566 0.364346 196.19C0.614435 196.813 0.985965 197.381 1.45733 197.859C1.9287 198.338 2.4905 198.718 3.11007 198.977C3.72963 199.237 4.39461 199.371 5.06632 199.371H122.087V199.371H136.693C137.364 199.371 138.028 199.237 138.648 198.978C139.267 198.718 139.828 198.339 140.3 197.861C140.771 197.383 141.143 196.816 141.393 196.193C141.643 195.571 141.768 194.904 141.759 194.233C141.565 179.786 141.016 168.044 139.889 162.597Z" fill="#3F3D56"/>
<path d="M154.904 18.5009C150.351 18.5009 145.985 20.3094 142.765 23.5288C139.546 26.7481 137.737 31.1144 137.737 35.6672C137.737 40.22 139.546 44.5863 142.765 47.8056C145.985 51.0249 150.351 52.8335 154.904 52.8335H282.834C287.386 52.8335 291.753 51.0249 294.972 47.8056C298.191 44.5863 300 40.22 300 35.6672C300 31.1144 298.191 26.7481 294.972 23.5288C291.753 20.3094 287.386 18.5009 282.834 18.5009H154.904Z" fill="#E5E5E5"/>
<path d="M154.904 21.975C151.272 21.975 147.79 23.4175 145.222 25.9853C142.654 28.5531 141.211 32.0358 141.211 35.6672C141.211 39.2986 142.654 42.7812 145.222 45.349C147.79 47.9168 151.272 49.3594 154.904 49.3594H282.834C286.465 49.3594 289.948 47.9168 292.515 45.349C295.083 42.7812 296.526 39.2986 296.526 35.6672C296.526 32.0358 295.083 28.5531 292.515 25.9853C289.948 23.4175 286.465 21.975 282.834 21.975H154.904Z" fill="white"/>
<path d="M75.1621 100.056C90.6401 100.056 103.188 87.5082 103.188 72.0301C103.188 56.5521 90.6401 44.0046 75.1621 44.0046C59.684 44.0046 47.1366 56.5521 47.1366 72.0301C47.1366 87.5082 59.684 100.056 75.1621 100.056Z" fill="#9E616A"/>
<path d="M67.9926 98.6834C67.8729 98.4198 67.7535 98.1553 67.6344 97.8898C67.6803 97.8913 67.7257 97.8979 67.7716 97.8991L67.9926 98.6834Z" fill="#2F2E41"/>
<path d="M46.3572 45.2791C47.7747 44.1483 49.4313 43.1079 51.2436 43.1664C53.0558 43.2248 54.8936 44.8616 54.5181 46.6355C57.8468 40.7417 63.1452 36.2087 69.4831 33.8321C75.821 31.4556 82.7936 31.3873 89.1768 33.6394C93.681 35.2285 98.098 38.4077 99.1327 43.0706C99.3983 44.2675 99.4553 45.58 100.203 46.552C101.145 47.7775 102.948 48.0547 104.433 47.6236C104.447 47.6193 104.462 47.6149 104.477 47.6105C104.728 47.5249 104.998 47.5164 105.254 47.5863C105.51 47.6562 105.739 47.8012 105.911 48.0025C106.083 48.2039 106.191 48.4523 106.221 48.7156C106.25 48.979 106.2 49.2452 106.077 49.4797L104.803 51.8566C106.409 52.2147 108.078 52.1792 109.668 51.7531C109.932 51.6838 110.211 51.698 110.467 51.7936C110.723 51.8892 110.943 52.0616 111.097 52.2871C111.251 52.5127 111.331 52.7803 111.327 53.0533C111.322 53.3263 111.234 53.5913 111.073 53.812C106.871 59.5816 99.85 63.3073 92.6855 63.2635C87.5934 63.2324 82.4488 61.4775 77.4931 62.6485C75.5759 63.1015 73.7844 63.978 72.2502 65.2136C70.7159 66.4493 69.4777 68.0128 68.6265 69.7894C67.7753 71.5659 67.3327 73.5106 67.331 75.4806C67.3294 77.4505 67.7688 79.3959 68.6171 81.1739C67.0947 79.5087 64.1516 79.9029 62.5943 81.5356C61.037 83.1684 60.6339 85.6052 60.7908 87.8561C61.0307 91.2987 62.3796 94.5426 63.8015 97.6998C51.8798 97.3245 40.6038 88.9616 36.8083 77.6505C32.9968 66.2921 36.9913 52.7505 46.3572 45.2791Z" fill="#2F2E41"/>
<path opacity="0.2" d="M27.5844 156.193L35.4449 198.96L40.1614 199.371L27.5844 156.193Z" fill="black"/>
<path opacity="0.2" d="M114.17 152.967L106.309 198.929L101.593 199.371L114.17 152.967Z" fill="black"/>
<path d="M53.0616 30.8858C51.5545 31.5151 49.9819 30.8254 49.3223 29.2459C48.6527 27.6423 49.2781 26.0144 50.8094 25.375C52.3409 24.7355 53.8855 25.4269 54.5659 27.0564C55.2361 28.6614 54.6175 30.2361 53.0616 30.8858ZM50.1746 22.2185L48.9762 22.7189C48.6769 22.8424 48.342 22.8491 48.038 22.7376C47.734 22.626 47.4828 22.4045 47.3343 22.1167L47.2751 22.0008C45.9857 19.6753 45.838 16.8491 46.8386 13.6051C47.7655 10.695 48.1505 8.6483 47.3762 6.79413C46.4811 4.65037 44.5696 3.97883 42.132 4.95163C41.1866 5.3464 40.8857 5.3401 40.1417 6.07816C39.9799 6.24065 39.787 6.3689 39.5745 6.45524C39.3621 6.54157 39.1344 6.58424 38.9051 6.5807C38.6834 6.57809 38.4645 6.53086 38.2615 6.44184C38.0584 6.35281 37.8754 6.22381 37.7233 6.06253C37.4303 5.75171 37.2661 5.34127 37.2639 4.9141C37.2618 4.48693 37.4218 4.07486 37.7117 3.7611C38.9622 2.45204 40.4705 1.4164 42.1414 0.719544C47.3788 -1.46739 50.0153 1.7613 51.2218 4.65068C52.4019 7.47682 51.738 10.099 50.6714 13.495C49.7776 16.3169 49.8297 18.4078 50.845 20.4869C50.9183 20.6441 50.9591 20.8144 50.9649 20.9878C50.9707 21.1611 50.9414 21.3338 50.8788 21.4956C50.8162 21.6573 50.7216 21.8047 50.6005 21.9289C50.4795 22.0532 50.3346 22.1517 50.1746 22.2185L50.1746 22.2185Z" fill="#F08883"/>
<path d="M183.162 43.8544H157.708C157.628 43.8549 157.547 43.8394 157.473 43.8089C157.398 43.7783 157.33 43.7333 157.272 43.6763C157.215 43.6193 157.169 43.5515 157.138 43.4769C157.107 43.4022 157.091 43.3221 157.091 43.2413C157.091 43.1604 157.107 43.0803 157.138 43.0057C157.169 42.931 157.215 42.8633 157.272 42.8063C157.33 42.7493 157.398 42.7042 157.473 42.6737C157.547 42.6431 157.628 42.6276 157.708 42.6282H183.162C183.324 42.6293 183.479 42.6944 183.593 42.8092C183.707 42.9241 183.771 43.0794 183.771 43.2413C183.771 43.4031 183.707 43.5585 183.593 43.6733C183.479 43.7882 183.324 43.8533 183.162 43.8544Z" fill="#F08883"/>
<path d="M215.451 44.0587H189.998C189.917 44.0593 189.836 44.0438 189.762 44.0132C189.687 43.9827 189.619 43.9376 189.561 43.8806C189.504 43.8236 189.458 43.7559 189.427 43.6812C189.396 43.6065 189.38 43.5265 189.38 43.4456C189.38 43.3648 189.396 43.2847 189.427 43.21C189.458 43.1354 189.504 43.0676 189.561 43.0106C189.619 42.9536 189.687 42.9086 189.762 42.878C189.836 42.8474 189.917 42.832 189.998 42.8325H215.451C215.532 42.832 215.612 42.8474 215.687 42.878C215.762 42.9086 215.83 42.9536 215.887 43.0106C215.944 43.0676 215.99 43.1354 216.021 43.21C216.052 43.2847 216.068 43.3648 216.068 43.4456C216.068 43.5265 216.052 43.6065 216.021 43.6812C215.99 43.7559 215.944 43.8236 215.887 43.8806C215.83 43.9376 215.762 43.9827 215.687 44.0132C215.612 44.0438 215.532 44.0593 215.451 44.0587Z" fill="#F08883"/>
<path d="M247.74 44.263H222.287C222.125 44.2619 221.97 44.1969 221.856 44.082C221.742 43.9672 221.678 43.8118 221.678 43.65C221.678 43.4881 221.742 43.3328 221.856 43.2179C221.97 43.1031 222.125 43.038 222.287 43.0369H247.74C247.821 43.0363 247.901 43.0518 247.976 43.0823C248.051 43.1129 248.119 43.158 248.176 43.215C248.233 43.2719 248.279 43.3397 248.31 43.4144C248.341 43.489 248.357 43.5691 248.357 43.65C248.357 43.7308 248.341 43.8109 248.31 43.8856C248.279 43.9602 248.233 44.028 248.176 44.085C248.119 44.1419 248.051 44.187 247.976 44.2176C247.901 44.2481 247.821 44.2636 247.74 44.263H247.74Z" fill="#F08883"/>
<path d="M280.029 44.4674H254.576C254.414 44.4663 254.259 44.4013 254.145 44.2864C254.031 44.1715 253.967 44.0162 253.967 43.8544C253.967 43.6925 254.031 43.5372 254.145 43.4223C254.259 43.3074 254.414 43.2424 254.576 43.2413H280.029C280.191 43.2424 280.346 43.3074 280.46 43.4223C280.574 43.5372 280.638 43.6925 280.638 43.8544C280.638 44.0162 280.574 44.1715 280.46 44.2864C280.346 44.4013 280.191 44.4663 280.029 44.4674Z" fill="#F08883"/>
<path d="M170.379 38.212C172.992 38.212 175.11 36.094 175.11 33.4814C175.11 30.8687 172.992 28.7507 170.379 28.7507C167.766 28.7507 165.648 30.8687 165.648 33.4814C165.648 36.094 167.766 38.212 170.379 38.212Z" fill="#F08883"/>
<path d="M202.863 38.212C205.476 38.212 207.594 36.094 207.594 33.4814C207.594 30.8687 205.476 28.7507 202.863 28.7507C200.25 28.7507 198.132 30.8687 198.132 33.4814C198.132 36.094 200.25 38.212 202.863 38.212Z" fill="#F08883"/>
<path d="M235.347 38.212C237.96 38.212 240.078 36.094 240.078 33.4814C240.078 30.8687 237.96 28.7507 235.347 28.7507C232.735 28.7507 230.617 30.8687 230.617 33.4814C230.617 36.094 232.735 38.212 235.347 38.212Z" fill="#F08883"/>
<path d="M267.831 38.212C270.444 38.212 272.562 36.094 272.562 33.4814C272.562 30.8687 270.444 28.7507 267.831 28.7507C265.219 28.7507 263.101 30.8687 263.101 33.4814C263.101 36.094 265.219 38.212 267.831 38.212Z" fill="#F08883"/>
</g>
<defs>
<clipPath id="clip0_1_1477">
<rect width="300" height="199.371" fill="white"/>
</clipPath>
</defs>
</svg>
