<svg width="55" height="50" viewBox="0 0 55 50" fill="none" xmlns="http://www.w3.org/2000/svg">
<path d="M0 12C0 5.37258 5.37258 0 12 0H43C49.6274 0 55 5.37258 55 12V38C55 44.6274 49.6274 50 43 50H12C5.37258 50 0 44.6274 0 38V12Z" fill="#A33D3A"/>
<g clip-path="url(#clip0_1_1574)">
<path fill-rule="evenodd" clip-rule="evenodd" d="M43 25.6462C43 24.3877 42.8979 23.4693 42.677 22.517H28.3085V28.1972H36.7424C36.5725 29.6088 35.6542 31.7346 33.6137 33.1631L33.5851 33.3533L38.1281 36.8733L38.4429 36.9047C41.3335 34.2347 43 30.3061 43 25.6462Z" fill="#810707"/>
<path fill-rule="evenodd" clip-rule="evenodd" d="M28.3061 40.6122C32.4387 40.6122 35.908 39.2516 38.4422 36.9047L33.6122 33.1631C32.3197 34.0645 30.585 34.6938 28.3061 34.6938C24.2585 34.6938 20.8232 32.0238 19.5986 28.3333L19.4191 28.3486L14.6944 32.0051L14.6326 32.1768C17.1496 37.1768 22.3197 40.6122 28.3061 40.6122Z" fill="#B12121"/>
<path fill-rule="evenodd" clip-rule="evenodd" d="M19.5986 28.3317C19.2755 27.3795 19.0884 26.3592 19.0884 25.305C19.0884 24.2507 19.2754 23.2304 19.5816 22.2783L19.573 22.0754L14.7892 18.3608L14.6327 18.4353C13.5953 20.5098 13.0001 22.8393 13.0001 25.3049C13.0001 27.7705 13.5954 30.0999 14.6327 32.1744L19.5986 28.3316L19.5986 28.3317Z" fill="#F0AEAB"/>
<path fill-rule="evenodd" clip-rule="evenodd" d="M28.3061 15.9183C31.1803 15.9183 33.1189 17.1599 34.2245 18.1973L38.5442 13.9796C35.8912 11.5137 32.4387 10.0001 28.3061 10.0001C22.3197 10.0001 17.1496 13.4354 14.6326 18.4354L19.5816 22.279C20.8232 18.5886 24.2585 15.9184 28.3061 15.9184V15.9183Z" fill="#F08883"/>
</g>
<defs>
<clipPath id="clip0_1_1574">
<rect width="30" height="30.6122" fill="white" transform="translate(13 10)"/>
</clipPath>
</defs>
</svg>
