<svg width="300" height="181" viewBox="0 0 300 181" fill="none" xmlns="http://www.w3.org/2000/svg">
<g clip-path="url(#clip0_1_1230)">
<path d="M292.122 180.911C319.606 132.295 266.89 107.397 260.105 158.734C259.761 152.109 259.397 145.377 257.197 139.119C253.854 126.136 235.694 116.728 227.019 129.871C222.434 138.014 228.515 149.437 223.242 157.153C219.915 137.733 191.718 142.289 194.687 161.775C196.916 171.136 206.807 176.584 214.702 180.819L292.122 180.911Z" fill="#F2F2F2"/>
<path d="M198.726 150.011C212.677 154.538 230.112 162.164 231.527 178.831C231.567 179.492 232.601 179.496 232.56 178.831C232.199 172.946 229.331 167.56 225.359 163.301C221.005 158.631 215.362 155.441 209.536 152.966C208.398 152.703 196.541 147.094 198.726 150.011Z" fill="white"/>
<path d="M233.973 125.633C243.629 141.755 248.223 160.404 247.161 179.167C247.123 179.831 248.156 179.829 248.195 179.167C249.018 164.42 246.391 149.684 240.524 136.129C239.865 134.916 234.55 122.141 233.973 125.633Z" fill="white"/>
<path d="M284.571 131.571C277.765 146.874 273.551 163.203 272.104 179.889C272.046 180.551 273.08 180.548 273.138 179.889C274.264 167.023 277.045 154.355 281.411 142.2C281.399 140.847 287.358 129.858 284.571 131.571V131.571Z" fill="white"/>
<path d="M164.823 180.075C172.691 166.158 157.6 159.031 155.658 173.726C155.56 171.83 155.455 169.903 154.825 168.111C153.869 164.395 148.67 161.702 146.187 165.464C144.874 167.795 146.615 171.065 145.105 173.274C144.153 167.715 136.081 169.019 136.931 174.597C137.569 177.277 140.401 178.836 142.661 180.049L164.823 180.075Z" fill="#F2F2F2"/>
<path d="M138.088 171.229C142.081 172.525 147.072 174.708 147.477 179.479C147.489 179.669 147.785 179.67 147.773 179.479C147.621 177.804 146.892 176.233 145.712 175.034C144.425 173.742 142.882 172.734 141.182 172.075C140.856 172 137.462 170.394 138.088 171.229Z" fill="white"/>
<path d="M148.177 164.251C150.941 168.866 152.256 174.205 151.953 179.575C151.942 179.766 152.238 179.765 152.248 179.575C152.484 175.354 151.732 171.136 150.053 167.256C149.864 166.908 148.342 163.251 148.177 164.251V164.251Z" fill="white"/>
<path d="M162.662 165.951C160.713 170.331 159.507 175.006 159.093 179.782C159.076 179.972 159.372 179.971 159.389 179.782C159.711 176.099 160.507 172.473 161.757 168.994C161.754 168.606 163.459 165.46 162.662 165.951Z" fill="white"/>
<path d="M114.393 7.65306H0.402793C0.295966 7.65306 0.193513 7.61062 0.117975 7.53508C0.0424367 7.45955 0 7.35709 0 7.25027C0 7.14344 0.0424367 7.04099 0.117975 6.96545C0.193513 6.88991 0.295966 6.84747 0.402793 6.84747H114.393C114.5 6.84747 114.603 6.88991 114.678 6.96545C114.754 7.04099 114.796 7.14344 114.796 7.25027C114.796 7.35709 114.754 7.45955 114.678 7.53508C114.603 7.61062 114.5 7.65306 114.393 7.65306Z" fill="#3F3D56"/>
<path d="M90.9504 13.695C94.7322 13.695 97.7979 10.6292 97.7979 6.84748C97.7979 3.06572 94.7322 0 90.9504 0C87.1686 0 84.1029 3.06572 84.1029 6.84748C84.1029 10.6292 87.1686 13.695 90.9504 13.695Z" fill="#F08883"/>
<path d="M114.393 33.4318H0.402793C0.295966 33.4318 0.193513 33.3894 0.117975 33.3138C0.0424367 33.2383 0 33.1358 0 33.029C0 32.9222 0.0424367 32.8197 0.117975 32.7442C0.193513 32.6687 0.295966 32.6262 0.402793 32.6262H114.393C114.5 32.6262 114.603 32.6687 114.678 32.7442C114.754 32.8197 114.796 32.9222 114.796 33.029C114.796 33.1358 114.754 33.2383 114.678 33.3138C114.603 33.3894 114.5 33.4318 114.393 33.4318Z" fill="#3F3D56"/>
<path d="M27.309 39.4737C31.0908 39.4737 34.1565 36.408 34.1565 32.6262C34.1565 28.8445 31.0908 25.7787 27.309 25.7787C23.5273 25.7787 20.4615 28.8445 20.4615 32.6262C20.4615 36.408 23.5273 39.4737 27.309 39.4737Z" fill="#F08883"/>
<path d="M114.393 59.2106H0.402793C0.295966 59.2106 0.193513 59.1682 0.117975 59.0926C0.0424367 59.0171 0 58.9146 0 58.8078C0 58.701 0.0424367 58.5985 0.117975 58.523C0.193513 58.4475 0.295966 58.405 0.402793 58.405H114.393C114.5 58.405 114.603 58.4475 114.678 58.523C114.754 58.5985 114.796 58.701 114.796 58.8078C114.796 58.9146 114.754 59.0171 114.678 59.0926C114.603 59.1682 114.5 59.2106 114.393 59.2106Z" fill="#3F3D56"/>
<path d="M54.2962 65.2525C58.078 65.2525 61.1437 62.1867 61.1437 58.405C61.1437 54.6232 58.078 51.5575 54.2962 51.5575C50.5145 51.5575 47.4487 54.6232 47.4487 58.405C47.4487 62.1867 50.5145 65.2525 54.2962 65.2525Z" fill="#F08883"/>
<path d="M166.581 63.3056C166.722 63.4975 166.848 63.7003 166.958 63.912L188.188 66.2992L191.275 62.1275L198.18 65.9644L192.102 76.0976L166.093 69.2716C165.431 69.9079 164.591 70.3276 163.685 70.475C162.778 70.6223 161.849 70.4902 161.02 70.0964C160.19 69.7025 159.5 69.0655 159.042 68.2701C158.583 67.4746 158.378 66.5585 158.453 65.6434C158.528 64.7284 158.879 63.8578 159.461 63.1475C160.043 62.4372 160.827 61.9208 161.709 61.667C162.592 61.4132 163.53 61.4341 164.401 61.7268C165.271 62.0195 166.031 62.5702 166.581 63.3056Z" fill="#FFB8B8"/>
<path d="M196.671 69.5934C196.5 69.5183 196.341 69.4189 196.199 69.2983L187.666 62.1107C187.461 61.9379 187.294 61.7245 187.176 61.4839C187.057 61.2433 186.99 60.9807 186.978 60.7128C186.967 60.4449 187.011 60.1775 187.108 59.9275C187.204 59.6774 187.352 59.4502 187.541 59.2603L195.284 51.4856C195.609 51.1563 196.042 50.955 196.503 50.9183C196.964 50.8815 197.423 51.0118 197.797 51.2854L203.652 55.5374C204.017 55.8029 204.279 56.1877 204.391 56.6253C204.503 57.063 204.458 57.526 204.265 57.9344L199.2 68.6445C198.984 69.1002 198.6 69.454 198.128 69.6311C197.656 69.8082 197.134 69.7947 196.671 69.5934H196.671Z" fill="#F08883"/>
<path d="M229.951 171.25L224.855 172.637L217.082 153.641L224.603 151.594L229.951 171.25Z" fill="#FFB8B8"/>
<path d="M220.417 172.279L230.647 169.496L232.331 175.684L216.315 180.042L216.206 179.64C215.788 178.105 215.997 176.467 216.787 175.087C217.577 173.707 218.883 172.697 220.417 172.279Z" fill="#2F2E41"/>
<path d="M186.386 175.139L181.105 175.138L178.593 154.768L186.388 154.768L186.386 175.139Z" fill="#FFB8B8"/>
<path d="M176.916 173.63H187.518V180.042H170.92V179.626C170.92 178.036 171.552 176.51 172.676 175.386C173.801 174.261 175.326 173.63 176.916 173.63Z" fill="#2F2E41"/>
<path d="M201.824 37.543C205.956 33.4111 205.956 26.712 201.824 22.5801C197.692 18.4482 190.993 18.4482 186.861 22.5801C182.729 26.712 182.729 33.4111 186.861 37.543C190.993 41.6748 197.692 41.6748 201.824 37.543Z" fill="#FFB8B8"/>
<path d="M186.063 160.615H178.846C178.353 160.614 177.878 160.425 177.519 160.088C177.159 159.75 176.941 159.288 176.909 158.796C174.759 124.609 176.017 100.085 180.868 81.6204C180.889 81.5396 180.916 81.4602 180.947 81.3827L181.333 80.4164C181.476 80.0559 181.724 79.7468 182.045 79.5294C182.366 79.312 182.745 79.1964 183.133 79.1977H197.974C198.254 79.1975 198.53 79.2579 198.785 79.3747C199.039 79.4916 199.264 79.6621 199.446 79.8746L201.462 82.2266C201.501 82.2725 201.538 82.3192 201.574 82.3684C210.663 95.0444 218.81 119.826 228.244 153.136C228.383 153.62 228.328 154.139 228.09 154.583C227.852 155.027 227.45 155.361 226.97 155.512L219.214 157.994C218.768 158.135 218.287 158.11 217.859 157.926C217.43 157.742 217.081 157.409 216.877 156.99L196.749 115.244C196.609 114.952 196.378 114.714 196.091 114.564C195.804 114.413 195.476 114.359 195.156 114.41C194.836 114.461 194.541 114.613 194.314 114.844C194.088 115.076 193.941 115.374 193.898 115.695L187.984 158.939C187.919 159.402 187.689 159.827 187.336 160.135C186.983 160.443 186.531 160.613 186.063 160.615Z" fill="#2F2E41"/>
<path d="M200.648 82.3986C200.628 82.3986 200.608 82.3982 200.588 82.3978L182.56 81.8286C182.097 81.8156 181.653 81.6364 181.311 81.3237C180.969 81.011 180.75 80.5857 180.696 80.1252C178.41 61.627 184.678 56.6714 187.478 55.3997C187.712 55.2941 187.915 55.1298 188.067 54.9228C188.219 54.7157 188.315 54.473 188.345 54.218L188.588 52.2791C188.629 51.9367 188.761 51.6116 188.971 51.3376C193.362 45.6491 199.358 43.8276 202.541 43.2483C202.799 43.2019 203.064 43.2085 203.32 43.2676C203.575 43.3267 203.816 43.4372 204.028 43.5923C204.239 43.7474 204.417 43.9439 204.551 44.1698C204.684 44.3958 204.77 44.6464 204.803 44.9066L205.166 47.6907C205.203 47.9563 205.309 48.2075 205.474 48.4193C214.632 60.3915 204.429 78.0685 202.291 81.4904C202.116 81.7682 201.874 81.9972 201.587 82.1561C201.299 82.3149 200.977 82.3984 200.648 82.3986Z" fill="#F08883"/>
<path d="M198.967 108.691C199.521 108.303 199.983 107.798 200.32 107.211C200.658 106.625 200.863 105.972 200.921 105.298C200.978 104.624 200.888 103.945 200.655 103.31C200.422 102.675 200.053 102.098 199.573 101.621L202.921 61.1835L192.951 62.555L192.762 101.844C192.014 102.703 191.607 103.807 191.618 104.946C191.629 106.085 192.058 107.18 192.823 108.024C193.588 108.868 194.636 109.402 195.768 109.525C196.901 109.648 198.039 109.351 198.967 108.691H198.967Z" fill="#FFB8B8"/>
<path d="M203.573 67.0063C203.386 67.0063 203.2 66.9794 203.021 66.9264L192.318 63.7785C192.061 63.7028 191.822 63.5747 191.617 63.402C191.412 63.2294 191.245 63.016 191.126 62.7754C191.008 62.5349 190.94 62.2724 190.929 62.0045C190.917 61.7366 190.961 61.4691 191.057 61.2191L195.018 50.9864C195.184 50.5542 195.499 50.1958 195.906 49.9767C196.314 49.7575 196.786 49.6921 197.238 49.7925L204.309 51.3297C204.75 51.4258 205.144 51.673 205.423 52.0286C205.702 52.3842 205.847 52.8259 205.835 53.2774L205.506 65.1205C205.492 65.6244 205.282 66.103 204.921 66.455C204.561 66.807 204.077 67.0047 203.573 67.0064V67.0063Z" fill="#F08883"/>
<path d="M292.837 180.854H139.373C139.266 180.854 139.163 180.812 139.088 180.736C139.012 180.661 138.97 180.558 138.97 180.451C138.97 180.344 139.012 180.242 139.088 180.167C139.163 180.091 139.266 180.049 139.373 180.049H292.837C292.944 180.049 293.046 180.091 293.122 180.167C293.197 180.242 293.24 180.344 293.24 180.451C293.24 180.558 293.197 180.661 293.122 180.736C293.046 180.812 292.944 180.854 292.837 180.854Z" fill="#3F3D56"/>
<path d="M205.983 23.4813C205.198 21.0991 204.618 18.6539 204.25 16.1725C204.134 14.7279 204.504 13.1735 205.556 12.1767C207.525 10.3113 210.87 11.1998 212.929 12.9652C215.905 15.5166 217.389 19.4376 217.95 23.317C218.511 27.1964 218.264 31.1414 218.399 35.0588C218.534 38.9763 219.094 43.0043 221.091 46.3771C223.089 49.7499 226.795 52.3388 230.704 52.0518C232.282 51.9665 233.78 51.3316 234.939 50.2571C235.508 49.716 235.938 49.0465 236.195 48.3046C236.452 47.5626 236.527 46.77 236.414 45.9932C238.412 49.5709 237.399 54.42 234.419 57.2325C231.438 60.0451 226.854 60.8402 222.936 59.6394C219.018 58.4385 215.793 55.4275 213.867 51.8105C211.941 48.1935 211.235 44.0152 211.338 39.9186C211.416 36.7727 211.951 33.6011 211.419 30.4994C210.888 27.3978 208.947 24.2485 205.886 23.5181L205.983 23.4813Z" fill="#2F2E41"/>
<path d="M192.238 27.5592C191.716 29.3025 189.72 30.3775 187.924 30.0827C186.128 29.7878 184.652 28.309 184.106 26.573C183.613 24.7998 183.815 22.9053 184.671 21.276C185.142 20.2994 185.802 19.4254 186.612 18.7041C187.422 17.9827 188.366 17.4282 189.39 17.0721C190.42 16.7307 191.518 16.6419 192.589 16.8131C193.661 16.9844 194.676 17.4107 195.548 18.0561C195.641 17.6645 195.837 17.3047 196.115 17.0138C196.393 16.7229 196.744 16.5113 197.131 16.401C197.911 16.1909 198.733 16.2031 199.506 16.436C201.733 17.0707 203.663 18.4748 204.953 20.3984C206.226 22.3162 207.068 24.4872 207.422 26.7617C208.029 30.1728 207.805 33.9002 205.889 36.7872C203.974 39.6741 200.054 41.3788 196.874 40.0025C196.676 38.9889 197.146 37.9682 197.689 37.0899C198.233 36.2116 198.877 35.356 199.085 34.3445C199.294 33.333 198.894 32.0958 197.916 31.765C197.081 31.4828 196.191 31.94 195.312 31.9952C194.812 32.0266 194.313 31.9261 193.865 31.7038C193.417 31.4815 193.035 31.1452 192.758 30.7287C192.48 30.3121 192.317 29.83 192.285 29.3307C192.253 28.8314 192.353 28.3324 192.574 27.8837L192.238 27.5592Z" fill="#2F2E41"/>
</g>
<defs>
<clipPath id="clip0_1_1230">
<rect width="300" height="180.911" fill="white"/>
</clipPath>
</defs>
</svg>
