<svg width="300" height="303" viewBox="0 0 300 303" fill="none" xmlns="http://www.w3.org/2000/svg">
<g clip-path="url(#clip0_1_1514)">
<path d="M150 302.506C232.843 302.506 300 298.562 300 293.696C300 288.83 232.843 284.885 150 284.885C67.1573 284.885 0 288.83 0 293.696C0 298.562 67.1573 302.506 150 302.506Z" fill="#E6E6E6"/>
<path d="M170.044 69.7934H168.43V25.5859C168.43 18.8001 165.735 12.2922 160.936 7.49394C156.138 2.69565 149.63 0 142.845 0H49.1855C42.3997 0 35.8918 2.69565 31.0935 7.49394C26.2953 12.2922 23.5996 18.8001 23.5996 25.5859V268.11C23.5996 274.896 26.2953 281.404 31.0935 286.202C35.8918 291 42.3997 293.696 49.1855 293.696H142.845C149.63 293.696 156.138 291 160.936 286.202C165.735 281.404 168.43 274.896 168.43 268.11V101.261H170.044V69.7934Z" fill="#3F3D56"/>
<path d="M162.985 25.7647V267.932C162.984 272.999 160.971 277.859 157.388 281.443C153.804 285.026 148.944 287.039 143.877 287.04H49.7683C44.7007 287.039 39.8408 285.026 36.2575 281.443C32.6742 277.86 30.661 273 30.6608 267.932V25.7647C30.6609 20.697 32.6741 15.8369 36.2575 12.2535C39.8409 8.6701 44.701 6.65692 49.7687 6.6568H61.1854C60.6244 8.0353 60.4107 9.53056 60.5632 11.011C60.7156 12.4915 61.2296 13.9118 62.0598 15.147C62.89 16.3823 64.0111 17.3945 65.3244 18.0948C66.6376 18.7951 68.1029 19.1619 69.5912 19.163H123.248C124.736 19.162 126.201 18.7952 127.514 18.095C128.828 17.3947 129.949 16.3825 130.779 15.1472C131.609 13.912 132.123 12.4917 132.276 11.0111C132.428 9.53064 132.215 8.03534 131.654 6.6568H143.877C148.944 6.65692 153.804 8.6701 157.388 12.2535C160.971 15.8369 162.984 20.697 162.985 25.7647Z" fill="white"/>
<path d="M74.1348 209.116H72.1555L72.8163 170.457H73.4771L74.1348 209.116Z" fill="#E6E6E6"/>
<path d="M75.7837 146.118L78.9784 141.181C78.031 138.564 76.9368 136.002 75.7009 133.508L73.6353 135.177L75.2709 132.649C73.7119 129.581 72.4855 127.648 72.4855 127.648C72.4855 127.648 66.0793 137.743 63.9379 148.434L68.0375 154.77L63.5 151.104C63.3384 152.349 63.2553 153.603 63.2511 154.859C63.2511 167.519 67.3859 177.782 72.4864 177.782C77.5868 177.782 81.7216 167.518 81.7216 154.859C81.7216 150.934 80.8335 146.828 79.6071 143.03L75.7837 146.118Z" fill="#CCCCCC"/>
<path d="M125.658 209.116H123.679L124.34 170.457H125.001L125.658 209.116Z" fill="#E6E6E6"/>
<path d="M127.308 146.118L130.502 141.181C129.555 138.564 128.461 136.002 127.225 133.508L125.159 135.177L126.795 132.649C125.236 129.581 124.009 127.648 124.009 127.648C124.009 127.648 117.602 137.744 115.463 148.434L119.56 154.769L115.022 151.103C114.86 152.348 114.777 153.602 114.773 154.858C114.773 167.519 118.908 177.782 124.008 177.782C129.109 177.782 133.244 167.517 133.244 154.858C133.244 150.933 132.356 146.827 131.129 143.029L127.308 146.118Z" fill="#CCCCCC"/>
<path d="M72.6286 80.9683C82.6719 80.9683 90.8136 72.8266 90.8136 62.7833C90.8136 52.74 82.6719 44.5983 72.6286 44.5983C62.5853 44.5983 54.4436 52.74 54.4436 62.7833C54.4436 72.8266 62.5853 80.9683 72.6286 80.9683Z" fill="#E6E6E6"/>
<path d="M97.8162 203.487H93.7356L95.096 123.776H96.4559L97.8162 203.487Z" fill="#E6E6E6"/>
<path d="M101.217 73.5907L107.804 63.4119C105.85 58.0157 103.594 52.7341 101.046 47.592L96.7863 51.0321L100.159 45.8198C96.9431 39.4929 94.4158 35.5066 94.4158 35.5066C94.4158 35.5066 81.2053 56.3242 76.7916 78.3656L85.2423 91.4295L75.8846 83.8713C75.5513 86.4389 75.3799 89.025 75.3713 91.6141C75.3713 117.718 83.8969 138.88 94.4136 138.88C104.93 138.88 113.456 117.718 113.456 91.6141C113.456 83.5216 111.625 75.055 109.1 67.2229L101.217 73.5907Z" fill="#CCCCCC"/>
<path d="M162.985 214.977V269.166C162.985 280.156 154.43 289.066 143.877 289.067H49.7683C39.2154 289.067 30.6604 280.157 30.6599 269.166V220.26C46.9762 200.312 70.567 188.39 95.7093 187.386C120.852 186.382 145.25 196.388 162.985 214.977Z" fill="#E6E6E6"/>
<path opacity="0.2" d="M96.9251 268.431C112.303 268.431 124.77 255.964 124.77 240.586C124.77 225.208 112.303 212.741 96.9251 212.741C81.5468 212.741 69.0802 225.208 69.0802 240.586C69.0802 255.964 81.5468 268.431 96.9251 268.431Z" fill="#C3B3EA"/>
<path d="M96.9251 263.007C109.308 263.007 119.346 252.969 119.346 240.586C119.346 228.203 109.308 218.165 96.9251 218.165C84.5425 218.165 74.5044 228.203 74.5044 240.586C74.5044 252.969 84.5425 263.007 96.9251 263.007Z" fill="#F08883"/>
<path d="M94.3102 250.172L86.4084 240.013L91.0036 236.439L94.7446 241.249L107.383 227.908L111.609 231.911L94.3102 250.172Z" fill="white"/>
<path d="M216.073 205.713C224.102 205.713 230.611 199.205 230.611 191.176C230.611 183.147 224.102 176.638 216.073 176.638C208.045 176.638 201.536 183.147 201.536 191.176C201.536 199.205 208.045 205.713 216.073 205.713Z" fill="#2F2E41"/>
<path d="M221.964 272.787L223.084 278.07L243.996 276.264L242.344 268.467L221.964 272.787Z" fill="#FFB8B8"/>
<path d="M220.336 289.298L216.817 272.693L223.233 271.333L225.392 281.523C225.571 282.365 225.582 283.235 225.424 284.082C225.267 284.928 224.944 285.736 224.475 286.458C224.005 287.18 223.398 287.802 222.688 288.289C221.978 288.777 221.179 289.12 220.336 289.298Z" fill="#2F2E41"/>
<path d="M208.864 272.505L206.51 277.366L186.642 270.601L190.116 263.427L208.864 272.505Z" fill="#FFB8B8"/>
<path d="M203.442 280.17L207.981 270.795L213.884 273.653L206.487 288.93C204.921 288.172 203.721 286.823 203.15 285.18C202.579 283.538 202.684 281.735 203.442 280.17Z" fill="#2F2E41"/>
<path d="M169.718 262.904C170.398 263.031 171.098 263.007 171.767 262.834C172.437 262.661 173.061 262.343 173.595 261.903C174.129 261.463 174.559 260.911 174.857 260.286C175.154 259.662 175.311 258.98 175.316 258.288L208.08 228.08L199.944 221.778L170.28 253.471C169.117 253.539 168.019 254.031 167.194 254.854C166.37 255.677 165.876 256.775 165.807 257.938C165.738 259.101 166.097 260.249 166.818 261.164C167.539 262.08 168.571 262.699 169.718 262.904L169.718 262.904Z" fill="#FFB8B8"/>
<path d="M214.249 206.37C220.224 206.37 225.068 201.525 225.068 195.55C225.068 189.574 220.224 184.73 214.249 184.73C208.273 184.73 203.429 189.574 203.429 195.55C203.429 201.525 208.273 206.37 214.249 206.37Z" fill="#FFB8B8"/>
<path d="M223.959 259.151C216.369 259.151 207.228 257.552 201.589 251.011L201.462 250.864L201.594 250.719C201.638 250.672 205.786 245.931 201.643 237.477L195.947 239.229L190.278 231.745L193.419 222.322L206.272 211.97C208.113 210.494 210.355 209.605 212.708 209.418C216.965 209.006 221.112 207.825 224.948 205.932C226.703 205.079 228.636 204.656 230.586 204.699L230.839 204.706C231.433 204.722 232.016 204.859 232.555 205.108C233.094 205.357 233.576 205.713 233.973 206.154C234.371 206.595 234.674 207.113 234.865 207.674C235.057 208.236 235.132 208.831 235.086 209.423C234.215 220.714 232.676 247.988 237.197 257.379L237.314 257.622L237.053 257.688C232.756 258.655 228.365 259.145 223.96 259.15L223.959 259.151Z" fill="#F08883"/>
<path d="M203.078 250.867C203.078 250.867 174.443 248.224 171.36 256.594C168.276 264.964 171.8 268.929 177.087 270.691C182.373 272.453 195.148 274.656 195.148 274.656L200.875 267.608L215.853 268.489C215.853 268.489 232.543 278.168 237.157 288.521C238.147 290.761 239.726 292.691 241.725 294.106C243.725 295.521 246.07 296.367 248.513 296.555C252.213 296.812 255.501 295.415 255.501 289.633C255.501 276.417 236.998 257.474 236.998 257.474L203.078 250.867Z" fill="#2F2E41"/>
<path d="M181.271 263.863C181.271 263.863 188.76 261.66 200.655 267.387L181.271 263.863Z" fill="#2F2E41"/>
<path d="M203.455 188.649C207.681 191.229 212.445 192.798 217.376 193.236L215.909 191.478C216.977 191.873 218.101 192.096 219.239 192.139C219.809 192.155 220.375 192.038 220.892 191.796C221.408 191.555 221.861 191.195 222.213 190.747C222.501 190.282 222.672 189.754 222.712 189.208C222.751 188.662 222.658 188.115 222.44 187.613C221.993 186.611 221.297 185.741 220.419 185.085C218.861 183.853 217.023 183.025 215.069 182.676C213.114 182.326 211.103 182.466 209.216 183.082C207.92 183.469 206.76 184.213 205.868 185.229C205.429 185.74 205.125 186.353 204.982 187.011C204.838 187.669 204.861 188.353 205.047 189" fill="#2F2E41"/>
<path d="M215.995 180.001C217.918 175.537 220.795 171.549 224.426 168.317C226.757 166.246 229.48 164.465 232.552 163.928C235.624 163.39 239.086 164.311 240.971 166.796C242.513 168.828 242.8 171.551 242.63 174.095C242.461 176.64 241.892 179.161 241.946 181.709C242.002 184.311 242.706 186.857 243.995 189.118C245.285 191.378 247.118 193.28 249.329 194.652C251.54 196.024 254.059 196.822 256.657 196.974C259.254 197.125 261.849 196.626 264.205 195.52C261.552 196.987 259.485 199.309 257.024 201.074C254.563 202.84 251.313 204.052 248.517 202.885C245.557 201.652 244.199 198.295 243.139 195.268L238.412 181.77C237.608 179.476 236.765 177.113 235.124 175.319C233.484 173.525 230.823 172.43 228.565 173.333C226.854 174.016 225.74 175.649 224.764 177.209C223.787 178.77 222.756 180.434 221.107 181.253C219.458 182.072 217.01 181.568 216.472 179.806" fill="#2F2E41"/>
<path d="M219.708 259.189C219.521 259.188 219.334 259.178 219.149 259.158C217.918 259.019 216.786 258.414 215.987 257.467C215.188 256.52 214.782 255.303 214.853 254.066C214.923 252.829 215.465 251.666 216.367 250.816C217.268 249.966 218.461 249.494 219.7 249.496C219.916 249.498 220.132 249.514 220.346 249.544L235.138 233.798L233.594 228.65L241.347 225.174L243.521 230.486C244.25 232.286 244.379 234.273 243.889 236.151C243.399 238.03 242.316 239.701 240.802 240.916L224.519 253.867C224.537 254.025 224.545 254.184 224.546 254.343C224.546 255.024 224.402 255.698 224.124 256.321C223.845 256.943 223.439 257.5 222.932 257.955C222.048 258.753 220.898 259.192 219.708 259.189Z" fill="#FFB8B8"/>
<path d="M231.271 206.815C231.784 206.587 232.338 206.465 232.899 206.456C233.46 206.447 234.017 206.552 234.537 206.765C235.057 206.977 235.528 207.292 235.923 207.691C236.318 208.09 236.628 208.564 236.834 209.086L244.487 228.4L232.593 236.33L231.271 206.815Z" fill="#F08883"/>
</g>
<defs>
<clipPath id="clip0_1_1514">
<rect width="300" height="302.506" fill="white"/>
</clipPath>
</defs>
</svg>
