<svg width="40" height="40" viewBox="0 0 40 40" fill="none" xmlns="http://www.w3.org/2000/svg">
<path d="M5.29927 29.651C7.96137 31.3394 11.1192 32.3165 14.5043 32.3165C24.0142 32.3165 31.7232 24.6066 31.7232 15.0975C31.7232 14.8601 31.7182 14.6244 31.7091 14.3895C32.053 14.1188 34.1804 12.4136 34.7019 11.3175C34.7019 11.3175 32.9743 12.0354 31.2835 12.2046C31.2801 12.2046 31.276 12.2054 31.2727 12.2054C31.2727 12.2054 31.276 12.2037 31.2818 12.1996C31.4376 12.0955 33.6157 10.6128 33.9106 8.8461C33.9106 8.8461 32.6887 9.49833 30.9778 10.0689C30.6945 10.163 30.398 10.2555 30.0923 10.3413C28.9895 9.16427 27.4219 8.42963 25.6818 8.42963C22.3442 8.42963 19.6396 11.1334 19.6396 14.4685C19.6396 14.9392 19.6937 15.3973 19.7962 15.8371C19.3297 15.8179 12.227 15.4197 7.39507 9.56819C7.39507 9.56819 4.50723 13.5106 9.116 17.5646C9.116 17.5646 7.715 17.5088 6.5063 16.7866C6.5063 16.7866 6.06236 21.5627 11.2817 22.7839C11.2817 22.7839 10.2547 23.1729 8.61623 22.8955C8.61623 22.8955 9.53247 26.7547 14.1696 27.1153C14.1696 27.1153 10.5028 30.4278 5.29761 29.6506L5.29927 29.651Z" fill="#C3B3EA"/>
</svg>
