<svg width="51" height="50" viewBox="0 0 51 50" fill="none" xmlns="http://www.w3.org/2000/svg">
<path d="M1.5 15C1.5 7.54416 7.54416 1.5 15 1.5H36C43.4558 1.5 49.5 7.54416 49.5 15V35C49.5 42.4558 43.4558 48.5 36 48.5H15C7.54416 48.5 1.5 42.4558 1.5 35V15Z" stroke="white" stroke-width="3"/>
<g clip-path="url(#clip0_100_2)">
<path d="M20.3958 38.906C19.9334 38.9061 19.483 38.7723 19.109 38.5238C18.7351 38.2754 18.4569 37.925 18.3143 37.5231C18.1718 37.1211 18.1722 36.6882 18.3156 36.2865C18.459 35.8848 18.7379 35.535 19.1124 35.2872C22.7758 32.8613 23.2905 28.3815 23.3095 24.3189C23.3122 23.7898 23.5443 23.2832 23.9548 22.9102C24.3654 22.5372 24.921 22.3281 25.4999 22.3289H25.5087C25.7961 22.3299 26.0804 22.3827 26.3455 22.4842C26.6105 22.5858 26.8511 22.734 27.0534 22.9206C27.2558 23.1071 27.4159 23.3283 27.5247 23.5714C27.6335 23.8145 27.6888 24.0748 27.6874 24.3375C27.6728 27.4031 27.6393 34.5821 21.6791 38.5247C21.3066 38.7733 20.857 38.9069 20.3958 38.906ZM29.1866 40.2308C30.3722 38.8808 31.3464 37.3865 32.0814 35.791C32.3084 35.3028 32.314 34.7522 32.0968 34.2603C31.8797 33.7683 31.4576 33.3754 30.9235 33.1679C30.3893 32.9604 29.7869 32.9553 29.2486 33.1538C28.7104 33.3522 28.2805 33.738 28.0535 34.2262C27.4811 35.4792 26.7197 36.6528 25.7916 37.713C25.4263 38.125 25.255 38.6528 25.3154 39.1802C25.3759 39.7076 25.6631 40.1915 26.1139 40.5254C26.5647 40.8593 27.1421 41.0158 27.7192 40.9606C28.2962 40.9053 28.8257 40.6428 29.191 40.2308H29.1866ZM34.1566 27.1179C34.2499 25.757 34.2499 24.5454 34.2499 23.6617C34.2502 22.3822 33.9145 21.1213 33.2711 19.9849C32.6278 18.8484 31.6954 17.8697 30.5524 17.1309C29.4094 16.392 28.0891 15.9146 26.7025 15.7388C25.3158 15.5629 23.9032 15.6938 22.5833 16.1203C22.308 16.2046 22.0539 16.3382 21.8357 16.5132C21.6176 16.6882 21.4397 16.9011 21.3124 17.1396C21.1852 17.3781 21.1112 17.6373 21.0947 17.9022C21.0782 18.1671 21.1195 18.4323 21.2163 18.6824C21.313 18.9326 21.4633 19.1626 21.6583 19.3591C21.8534 19.5556 22.0892 19.7147 22.3522 19.8271C22.6152 19.9394 22.9 20.0028 23.19 20.0136C23.48 20.0243 23.7695 19.9822 24.0416 19.8897C24.7017 19.6764 25.4081 19.611 26.1015 19.699C26.795 19.787 27.4552 20.0258 28.0268 20.3954C28.5983 20.7649 29.0644 21.2545 29.386 21.8229C29.7076 22.3912 29.8753 23.0219 29.8749 23.6617C29.8749 24.5401 29.8749 25.6331 29.7903 26.87C29.772 27.1325 29.8104 27.3956 29.9035 27.6445C29.9966 27.8933 30.1425 28.123 30.3328 28.3202C30.5231 28.5174 30.7542 28.6784 31.0127 28.7939C31.2712 28.9094 31.5521 28.9772 31.8393 28.9933C31.884 28.9933 31.9292 28.9933 31.9749 28.9933C32.5316 28.9932 33.0673 28.7992 33.4729 28.4508C33.8785 28.1024 34.1235 27.6257 34.158 27.1179H34.1566ZM14.841 34.2662C15.791 34.1646 16.7076 33.8841 17.533 33.4425C21.0928 31.4898 21.1103 27.3552 21.1249 24.3362C21.1261 24.0735 21.0706 23.8132 20.9616 23.5702C20.8527 23.3271 20.6924 23.106 20.4899 22.9196C20.2874 22.7332 20.0467 22.5851 19.7816 22.4837C19.5165 22.3824 19.2321 22.3297 18.9447 22.3289H18.9374C18.3588 22.3288 17.8037 22.5384 17.3937 22.9116C16.9837 23.2848 16.7522 23.7913 16.7499 24.3202C16.7368 27.4991 16.4991 29.3478 15.2916 30.0129C14.9823 30.1687 14.6423 30.2665 14.2912 30.3008C13.7398 30.365 13.2358 30.6185 12.8816 31.0099C12.5274 31.4014 12.3495 31.9014 12.384 32.4084C12.4185 32.9154 12.6629 33.3914 13.0675 33.7397C13.4721 34.0879 14.0066 34.2824 14.5624 34.2835C14.6556 34.2835 14.7487 34.2778 14.841 34.2662ZM38.2151 39.827C40.5933 34.7228 41.7284 29.2069 41.5416 23.6617C41.5436 21.8114 41.1606 19.9777 40.4128 18.2582C40.1986 17.7654 39.7789 17.3706 39.2461 17.1607C38.7134 16.9507 38.1112 16.9428 37.572 17.1386C37.0328 17.3344 36.6009 17.718 36.3711 18.2049C36.1414 18.6919 36.1327 19.2423 36.347 19.7351C36.8907 20.9845 37.1689 22.3171 37.1666 23.6617C37.3436 28.6282 36.3458 33.5712 34.2412 38.1529C33.9983 38.6345 33.9747 39.1846 34.1755 39.6822C34.3764 40.1797 34.7853 40.584 35.3123 40.806C35.8393 41.028 36.4412 41.0496 36.9856 40.866C37.5299 40.6824 37.9722 40.3086 38.2151 39.827ZM13.8333 25.6611V23.6617C13.8335 21.8176 14.357 20.0051 15.3526 18.4011C16.3483 16.7972 17.782 15.4566 19.5138 14.5104C21.2457 13.5642 23.2164 13.0447 25.2336 13.0026C27.2507 12.9605 29.2453 13.3973 31.0226 14.2702C31.532 14.5125 32.1252 14.5619 32.6742 14.4079C33.2231 14.2539 33.6838 13.9088 33.9568 13.4471C34.2298 12.9853 34.2932 12.444 34.1333 11.9399C33.9734 11.4358 33.6031 11.0094 33.1022 10.7527C30.6585 9.55072 27.9154 8.94867 25.141 9.00542C22.3666 9.06217 19.6557 9.77578 17.2733 11.0765C14.8909 12.3773 12.9184 14.2206 11.5486 16.4265C10.1788 18.6324 9.45858 21.1253 9.45825 23.6617V25.6611C9.45825 26.1913 9.68872 26.6999 10.099 27.0748C10.5092 27.4498 11.0656 27.6604 11.6458 27.6604C12.2259 27.6604 12.7823 27.4498 13.1925 27.0748C13.6028 26.6999 13.8333 26.1913 13.8333 25.6611Z" fill="white"/>
</g>
<defs>
<clipPath id="clip0_100_2">
<rect width="35" height="31.9892" fill="white" transform="translate(8 9)"/>
</clipPath>
</defs>
</svg>
