<svg width="55" height="50" viewBox="0 0 55 50" fill="none" xmlns="http://www.w3.org/2000/svg">
<path d="M0 12C0 5.37258 5.37258 0 12 0H43C49.6274 0 55 5.37258 55 12V38C55 44.6274 49.6274 50 43 50H12C5.37258 50 0 44.6274 0 38V12Z" fill="#9A81D5"/>
<path d="M13.2993 34.651C15.9614 36.3394 19.1192 37.3165 22.5043 37.3165C32.0142 37.3165 39.7232 29.6066 39.7232 20.0975C39.7232 19.8601 39.7182 19.6244 39.7091 19.3895C40.053 19.1188 42.1804 17.4136 42.7019 16.3175C42.7019 16.3175 40.9743 17.0354 39.2835 17.2046C39.2801 17.2046 39.276 17.2054 39.2727 17.2054C39.2727 17.2054 39.276 17.2037 39.2818 17.1996C39.4376 17.0955 41.6157 15.6128 41.9106 13.8461C41.9106 13.8461 40.6887 14.4983 38.9778 15.0689C38.6945 15.163 38.398 15.2555 38.0923 15.3413C36.9895 14.1643 35.4219 13.4296 33.6818 13.4296C30.3442 13.4296 27.6396 16.1334 27.6396 19.4685C27.6396 19.9392 27.6937 20.3973 27.7962 20.8371C27.3297 20.8179 20.227 20.4197 15.3951 14.5682C15.3951 14.5682 12.5072 18.5106 17.116 22.5646C17.116 22.5646 15.715 22.5088 14.5063 21.7866C14.5063 21.7866 14.0624 26.5627 19.2817 27.7839C19.2817 27.7839 18.2547 28.1729 16.6162 27.8955C16.6162 27.8955 17.5325 31.7547 22.1696 32.1153C22.1696 32.1153 18.5028 35.4278 13.2976 34.6506L13.2993 34.651Z" fill="#C3B3EA"/>
</svg>
